<?xml version="1.0" encoding="UTF-8" standalone="no"?><!DOCTYPE svg PUBLIC "-//W3C//DTD SVG 1.1//EN" "http://www.w3.org/Graphics/SVG/1.1/DTD/svg11.dtd"><svg width="100%" height="100%" viewBox="0 0 279 279" version="1.1" xmlns="http://www.w3.org/2000/svg" xmlns:xlink="http://www.w3.org/1999/xlink" xml:space="preserve" xmlns:serif="http://www.serif.com/" style="fill-rule:evenodd;clip-rule:evenodd;stroke-linejoin:round;stroke-miterlimit:1.41421;"><g id="right"><circle cx="139.5" cy="139.5" r="139.5" style="fill:#f1f1f2;"/><g><path d="M115.874,186.596c-3.236,3.235 -3.236,8.488 0,11.724c3.235,3.235 8.488,3.235 11.723,0l52.958,-52.958c3.235,-3.235 3.235,-8.489 0,-11.724c-3.235,-3.235 -8.488,-3.235 -11.724,0l-52.957,52.958Z" style="fill:#91919b;"/><path d="M127.597,80.68c-3.235,-3.235 -8.488,-3.235 -11.723,0c-3.236,3.236 -3.236,8.489 0,11.724l52.957,52.958c3.236,3.235 8.489,3.235 11.724,0c3.235,-3.235 3.235,-8.489 0,-11.724l-52.958,-52.958Z" style="fill:#91919b;"/></g></g></svg>