<?xml version="1.0" encoding="UTF-8" standalone="no"?><!DOCTYPE svg PUBLIC "-//W3C//DTD SVG 1.1//EN" "http://www.w3.org/Graphics/SVG/1.1/DTD/svg11.dtd"><svg width="100%" height="100%" viewBox="0 0 342 89" version="1.1" xmlns="http://www.w3.org/2000/svg" xmlns:xlink="http://www.w3.org/1999/xlink" xml:space="preserve" xmlns:serif="http://www.serif.com/" style="fill-rule:evenodd;clip-rule:evenodd;stroke-linejoin:round;stroke-miterlimit:1.41421;"><g id="readigm-logo"><g><path d="M26.91,30.492c-1.499,-0.239 -3.045,-0.358 -4.638,-0.358c-5.216,0 -10.541,2.393 -10.541,7.733l0,31.142l-11.384,0l0,-48.46l11.15,0l0,6.42c1.217,-4.324 6.558,-7.316 11.431,-7.316c1.624,0 2.967,0.209 4.029,0.627l-0.047,10.212Z" style="fill:#202020;fill-rule:nonzero;"/><path d="M55.534,69.905c-7.215,0 -13.063,-2.172 -17.545,-6.516c-4.482,-4.345 -6.722,-10.13 -6.722,-17.356l0,-1.343c0,-4.837 0.976,-9.159 2.928,-12.966c1.952,-3.807 4.692,-6.771 8.221,-8.891c3.53,-2.12 7.465,-3.18 11.806,-3.18c6.902,0 12.235,2.105 15.999,6.316c3.763,4.21 5.645,10.166 5.645,17.87l0,4.389l-33.122,0c0.344,4.001 1.741,7.166 4.193,9.495c2.452,2.329 5.536,3.493 9.253,3.493c5.215,0 9.463,-2.015 12.742,-6.046l6.137,5.599c-2.03,2.896 -4.739,5.143 -8.128,6.74c-3.388,1.598 -7.191,2.396 -11.407,2.396Zm-1.359,-41.518c-3.123,0 -5.645,1.045 -7.566,3.135c-1.921,2.09 -3.146,5.001 -3.677,8.734l21.69,0l0,-0.806c-0.25,-3.643 -1.265,-6.398 -3.045,-8.264c-1.78,-1.866 -4.247,-2.799 -7.402,-2.799Z" style="fill:#202020;fill-rule:nonzero;"/><path d="M113.672,69.009c0,0 0,-4.435 0,-5.523c-2.648,4.445 -8.058,6.419 -13.305,6.419c-5.091,0 -9.245,-1.388 -12.461,-4.165c-3.217,-2.777 -4.826,-6.211 -4.826,-10.301c0,-5.166 2.007,-9.129 6.02,-11.891c4.014,-2.762 9.752,-4.143 17.217,-4.143l6.98,0l0,-3.18c0,-2.508 -0.734,-4.516 -2.202,-6.024c-1.468,-1.508 -3.701,-2.262 -6.699,-2.262c-2.592,0 -4.716,0.62 -6.371,1.859c-1.656,1.239 -2.483,2.814 -2.483,4.725l-11.384,0c0,-2.657 0.921,-5.143 2.764,-7.457c1.842,-2.314 4.349,-4.128 7.519,-5.442c3.17,-1.314 6.707,-1.971 10.611,-1.971c5.934,0 10.666,1.426 14.195,4.278c3.529,2.851 5.34,6.86 5.434,12.025l0,33.053l-11.009,0Zm-11.197,-7.837c2.249,0 4.365,-0.523 6.348,-1.568c1.983,-1.045 4.474,-3.759 4.474,-7.285l0,-6.062l-6.137,0c-4.216,0 -7.386,0.702 -9.51,2.105c-2.124,1.404 -3.186,3.389 -3.186,5.957c0,2.09 0.726,3.755 2.179,4.994c1.452,1.239 3.396,1.859 5.832,1.859Z" style="fill:#202020;fill-rule:nonzero;"/><path d="M134.472,44.421c0,-7.465 1.812,-13.459 5.435,-17.982c3.623,-4.524 8.479,-6.786 14.569,-6.786c5.372,0 11.547,2.98 13.024,7.375l0,-26.812l11.384,0l0,68.793l-10.869,0l0,-7.016c-2.05,5.093 -7.948,7.912 -13.632,7.912c-5.934,0 -10.736,-2.284 -14.406,-6.852c-3.67,-4.569 -5.505,-10.779 -5.505,-18.632Zm33.023,0.284c-0.005,-8.986 -3.546,-16.265 -10.788,-16.265c-7.247,0 -10.788,7.288 -10.788,16.265l-0.029,0c0,8.977 3.541,16.265 10.788,16.265c7.243,0 10.784,-7.28 10.788,-16.265l0.029,0Z" style="fill:#202020;"/><g><path d="M203.733,69.009l-12.839,0c-0.087,-0.004 -0.174,-0.004 -0.26,-0.014c-0.86,-0.095 -1.644,-0.697 -1.952,-1.519c-0.213,-0.57 -0.194,-1.221 0.049,-1.777c0.035,-0.079 0.079,-0.154 0.118,-0.232l6.42,-11.119c0.126,-0.193 0.15,-0.248 0.307,-0.419c0.353,-0.383 0.835,-0.644 1.349,-0.729c0.229,-0.039 0.288,-0.029 0.519,-0.029c0.086,0.01 0.172,0.019 0.258,0.029c0.225,0.05 0.285,0.054 0.5,0.141c0.322,0.131 0.614,0.333 0.849,0.588c0.157,0.171 0.181,0.226 0.308,0.419l6.419,11.119c0.04,0.078 0.083,0.153 0.118,0.232c0.381,0.87 0.18,1.965 -0.516,2.642c-0.373,0.363 -0.869,0.597 -1.387,0.654c-0.086,0.01 -0.173,0.01 -0.26,0.014Z" style="fill:#777;"/><path d="M203.733,20.549l-12.839,0c-0.087,0.005 -0.174,0.005 -0.26,0.015c-0.86,0.095 -1.644,0.697 -1.952,1.519c-0.213,0.569 -0.194,1.22 0.049,1.776c0.035,0.08 0.079,0.155 0.118,0.232l6.42,11.12c0.126,0.193 0.15,0.248 0.307,0.418c0.353,0.383 0.835,0.644 1.349,0.73c0.229,0.038 0.288,0.029 0.519,0.029c0.086,-0.01 0.172,-0.019 0.258,-0.029c0.225,-0.05 0.285,-0.054 0.5,-0.141c0.322,-0.131 0.614,-0.333 0.849,-0.589c0.157,-0.17 0.181,-0.225 0.308,-0.418l6.419,-11.12c0.04,-0.077 0.083,-0.152 0.118,-0.232c0.381,-0.869 0.18,-1.964 -0.516,-2.641c-0.373,-0.363 -0.869,-0.597 -1.387,-0.654c-0.086,-0.01 -0.173,-0.01 -0.26,-0.015Z" style="fill:#777;"/></g><path d="M213.27,44.421c0,-7.524 1.851,-13.533 5.552,-18.027c3.701,-4.494 8.612,-6.741 14.734,-6.741c5.777,0 11.708,2.636 13.632,7.778l0,-6.882l10.775,0l0,46.983c0,6.359 -2.069,11.376 -6.207,15.048c-4.138,3.673 -9.721,5.509 -16.748,5.509c-3.717,0 -7.347,-0.739 -10.892,-2.217c-3.545,-1.478 -6.239,-3.411 -8.082,-5.8l5.388,-6.539c3.498,3.971 7.808,5.957 12.93,5.957c3.779,0 6.762,-0.978 8.948,-2.934c2.186,-1.956 3.279,-4.829 3.279,-8.621l0,-5.27c-1.954,4.782 -7.652,7.24 -13.117,7.24c-5.934,0 -10.783,-2.254 -14.546,-6.763c-3.764,-4.508 -5.646,-10.749 -5.646,-18.721Zm33.303,0.284c-0.004,-8.986 -3.605,-16.265 -10.968,-16.265c-7.369,0 -10.969,7.288 -10.969,16.265l-0.029,0c0,8.977 3.6,16.265 10.969,16.265c7.363,0 10.964,-7.28 10.968,-16.265l0.029,0Z" style="fill:#202020;"/><path d="M280.685,20.549l0,5.061c3.56,-3.971 8.432,-5.957 14.616,-5.957c6.777,0 11.415,2.479 13.914,7.435c3.685,-4.956 8.87,-7.435 15.553,-7.435c5.591,0 9.753,1.478 12.485,4.434c2.733,2.956 4.131,7.316 4.193,13.078l0,31.844l-11.384,0l0,-31.53c0,-5.221 -3.479,-8.934 -9.088,-8.913c-6.03,0.023 -9.745,3.438 -9.745,7.33l0,33.113l-11.384,0l0,-31.888c0,-5.177 -3.334,-8.597 -9.135,-8.555c-5.934,0.043 -9.698,3.532 -9.698,7.33l0,33.113l-11.384,0l0,-48.46l11.057,0Z" style="fill:#202020;fill-rule:nonzero;"/></g></g></svg>