<?xml version="1.0" encoding="UTF-8" standalone="no"?><!DOCTYPE svg PUBLIC "-//W3C//DTD SVG 1.1//EN" "http://www.w3.org/Graphics/SVG/1.1/DTD/svg11.dtd"><svg width="100%" height="100%" viewBox="0 0 128 128" version="1.1" xmlns="http://www.w3.org/2000/svg" xmlns:xlink="http://www.w3.org/1999/xlink" xml:space="preserve" xmlns:serif="http://www.serif.com/" style="fill-rule:evenodd;clip-rule:evenodd;stroke-linejoin:round;stroke-miterlimit:1.41421;"><g><circle cx="63.897" cy="64.115" r="63.5" style="fill:url(#_Linear1);"/><g id="readigm-curtail"><path d="M75.607,28.273l-23.409,0c-0.158,0.009 -0.316,0.009 -0.473,0.027c-1.569,0.173 -2.998,1.271 -3.559,2.769c-0.389,1.039 -0.355,2.226 0.089,3.239c0.064,0.145 0.143,0.282 0.215,0.424l11.704,20.272c0.23,0.352 0.275,0.452 0.561,0.763c0.643,0.699 1.522,1.175 2.459,1.331c0.417,0.07 0.525,0.052 0.946,0.052c0.157,-0.017 0.314,-0.035 0.471,-0.052c0.411,-0.092 0.52,-0.099 0.912,-0.258c0.587,-0.238 1.118,-0.607 1.547,-1.073c0.286,-0.311 0.331,-0.411 0.561,-0.763l11.704,-20.272c0.072,-0.142 0.151,-0.279 0.215,-0.424c0.695,-1.584 0.327,-3.581 -0.941,-4.815c-0.681,-0.662 -1.585,-1.089 -2.528,-1.193c-0.158,-0.018 -0.316,-0.018 -0.474,-0.027Z" style="fill:#fff;"/><path d="M52.186,99.957l23.409,0c0.158,-0.009 0.316,-0.009 0.474,-0.026c1.569,-0.174 2.997,-1.272 3.558,-2.77c0.389,-1.039 0.355,-2.225 -0.089,-3.239c-0.064,-0.145 -0.143,-0.282 -0.215,-0.423l-11.704,-20.272c-0.23,-0.353 -0.275,-0.453 -0.561,-0.764c-0.643,-0.698 -1.522,-1.174 -2.459,-1.33c-0.417,-0.07 -0.525,-0.053 -0.946,-0.053c-0.157,0.018 -0.314,0.035 -0.471,0.053c-0.411,0.092 -0.52,0.098 -0.912,0.257c-0.586,0.239 -1.118,0.607 -1.547,1.073c-0.286,0.311 -0.331,0.411 -0.561,0.764l-11.704,20.272c-0.072,0.141 -0.151,0.278 -0.215,0.423c-0.695,1.585 -0.327,3.582 0.941,4.816c0.681,0.662 1.585,1.089 2.529,1.193c0.157,0.017 0.315,0.017 0.473,0.026Z" style="fill:#fff;"/></g></g><defs><linearGradient id="_Linear1" x1="0" y1="0" x2="1" y2="0" gradientUnits="userSpaceOnUse" gradientTransform="matrix(-87.8735,87.8735,-87.8735,-87.8735,107.796,20.2156)"><stop offset="0" style="stop-color:#5f42ff;stop-opacity:1"/><stop offset="1" style="stop-color:#0fdda9;stop-opacity:1"/></linearGradient></defs></svg>