<?xml version="1.0" encoding="UTF-8" standalone="no"?><!DOCTYPE svg PUBLIC "-//W3C//DTD SVG 1.1//EN" "http://www.w3.org/Graphics/SVG/1.1/DTD/svg11.dtd"><svg width="100%" height="100%" viewBox="0 0 128 128" version="1.1" xmlns="http://www.w3.org/2000/svg" xmlns:xlink="http://www.w3.org/1999/xlink" xml:space="preserve" xmlns:serif="http://www.serif.com/" style="fill-rule:evenodd;clip-rule:evenodd;stroke-linejoin:round;stroke-miterlimit:1.41421;"><g><circle cx="63.897" cy="64.331" r="63.5" style="fill:#202020;"/><g id="readigm-curtail"><path d="M75.424,99.947l-23.043,0c-0.155,-0.008 -0.311,-0.008 -0.466,-0.025c-1.544,-0.171 -2.95,-1.252 -3.503,-2.727c-0.382,-1.022 -0.349,-2.191 0.088,-3.188c0.063,-0.143 0.141,-0.278 0.211,-0.417l11.521,-19.955c0.227,-0.347 0.271,-0.445 0.552,-0.751c0.634,-0.688 1.499,-1.156 2.421,-1.31c0.41,-0.068 0.517,-0.051 0.931,-0.051c0.155,0.017 0.309,0.034 0.464,0.051c0.404,0.091 0.512,0.097 0.897,0.254c0.578,0.234 1.101,0.597 1.523,1.056c0.282,0.306 0.326,0.404 0.553,0.751l11.521,19.955c0.07,0.139 0.148,0.274 0.211,0.417c0.684,1.56 0.322,3.526 -0.926,4.74c-0.67,0.652 -1.56,1.072 -2.489,1.175c-0.155,0.017 -0.311,0.017 -0.466,0.025Z" style="fill:#fff;"/><path d="M75.424,28.716l-23.043,0c-0.155,0.008 -0.311,0.008 -0.466,0.025c-1.544,0.171 -2.95,1.252 -3.503,2.727c-0.382,1.022 -0.349,2.19 0.088,3.188c0.063,0.143 0.141,0.278 0.211,0.417l11.521,19.955c0.227,0.346 0.271,0.445 0.552,0.751c0.634,0.688 1.499,1.156 2.421,1.31c0.41,0.068 0.517,0.051 0.931,0.051c0.155,-0.017 0.309,-0.034 0.464,-0.051c0.404,-0.091 0.512,-0.097 0.897,-0.254c0.578,-0.234 1.101,-0.597 1.523,-1.056c0.282,-0.306 0.326,-0.405 0.553,-0.751l11.521,-19.955c0.07,-0.139 0.148,-0.274 0.211,-0.417c0.684,-1.56 0.322,-3.526 -0.926,-4.74c-0.67,-0.652 -1.56,-1.072 -2.489,-1.175c-0.155,-0.017 -0.311,-0.017 -0.466,-0.025Z" style="fill:#fff;"/></g></g></svg>