<?xml version="1.0" encoding="UTF-8" standalone="no"?><!DOCTYPE svg PUBLIC "-//W3C//DTD SVG 1.1//EN" "http://www.w3.org/Graphics/SVG/1.1/DTD/svg11.dtd"><svg width="100%" height="100%" viewBox="0 0 342 87" version="1.1" xmlns="http://www.w3.org/2000/svg" xmlns:xlink="http://www.w3.org/1999/xlink" xml:space="preserve" xmlns:serif="http://www.serif.com/" style="fill-rule:evenodd;clip-rule:evenodd;stroke-linejoin:round;stroke-miterlimit:1.41421;"><g id="Readigm-logo"><path d="M25.243,18.176c0.752,0 1.59,0.043 2.515,0.13c0.925,0.086 1.677,0.188 2.255,0.303l-0.954,10.147c-0.578,-0.115 -1.287,-0.216 -2.125,-0.303c-0.838,-0.087 -1.547,-0.13 -2.125,-0.13c-2.312,0 -4.481,0.477 -6.504,1.431c-2.024,0.954 -3.657,2.414 -4.9,4.379c-1.244,1.966 -1.865,4.481 -1.865,7.546l0,24.37l-10.928,0l0,-47.006l9.974,0l0,8.152l0.52,0c1.388,-2.486 3.296,-4.611 5.724,-6.374c2.429,-1.764 5.233,-2.645 8.413,-2.645Z" style="fill:#0e0e0e;fill-rule:nonzero;"/><path d="M55.858,18.176c6.302,0 11.289,1.879 14.96,5.637c3.672,3.758 5.507,8.991 5.507,15.698l0,5.55l-31.048,0c0.116,4.279 1.301,7.589 3.556,9.93c2.255,2.342 5.377,3.513 9.366,3.513c3.007,0 5.724,-0.304 8.153,-0.911c2.428,-0.607 4.914,-1.489 7.458,-2.645l0,8.76c-2.312,1.098 -4.712,1.908 -7.198,2.428c-2.486,0.52 -5.464,0.78 -8.933,0.78c-4.625,0 -8.702,-0.881 -12.229,-2.645c-3.527,-1.763 -6.287,-4.423 -8.282,-7.979c-1.995,-3.556 -2.992,-8.022 -2.992,-13.399c0,-8.037 1.98,-14.166 5.941,-18.386c3.96,-4.221 9.207,-6.331 15.741,-6.331Zm0,8.065c-2.949,0 -5.334,0.94 -7.155,2.819c-1.822,1.879 -2.877,4.669 -3.166,8.369l20.208,0c-0.058,-3.238 -0.882,-5.912 -2.472,-8.022c-1.59,-2.111 -4.062,-3.166 -7.415,-3.166Z" style="fill:#0e0e0e;fill-rule:nonzero;"/><path d="M106.073,18.176c6.071,0 10.682,1.329 13.833,3.989c3.151,2.66 4.727,6.765 4.727,12.315l0,31.569l-9.887,0l0,-6.504l-0.347,0c-2.024,2.544 -4.163,4.408 -6.418,5.594c-2.255,1.185 -5.319,1.777 -9.193,1.777c-4.221,0 -7.719,-1.185 -10.494,-3.555c-2.775,-2.371 -4.163,-6.042 -4.163,-11.015c0,-4.857 1.778,-8.499 5.334,-10.927c3.555,-2.429 8.947,-3.788 16.174,-4.077l8.153,-0.26l0,-2.341c0,-3.007 -0.723,-5.146 -2.169,-6.418c-1.445,-1.272 -3.469,-1.908 -6.07,-1.908c-2.371,0 -4.64,0.332 -6.809,0.997c-2.168,0.665 -4.321,1.489 -6.461,2.472l-3.469,-7.632c2.313,-1.214 4.958,-2.197 7.936,-2.949c2.977,-0.752 6.085,-1.127 9.323,-1.127Zm7.719,25.671l-5.724,0.173c-4.799,0.174 -8.124,0.998 -9.974,2.472c-1.85,1.474 -2.775,3.455 -2.775,5.941c0,2.255 0.65,3.859 1.951,4.813c1.301,0.954 3.021,1.431 5.16,1.431c3.18,0 5.869,-0.91 8.066,-2.732c2.197,-1.821 3.296,-4.524 3.296,-8.109l0,-3.989Z" style="fill:#0e0e0e;fill-rule:nonzero;"/><path d="M153.86,66.916c-5.435,0 -9.844,-2.038 -13.226,-6.114c-3.383,-4.076 -5.074,-10.133 -5.074,-18.169c0,-8.095 1.706,-14.195 5.117,-18.3c3.411,-4.105 7.892,-6.157 13.443,-6.157c3.469,0 6.317,0.664 8.543,1.994c2.226,1.33 4.004,2.949 5.333,4.857l0.521,0c0,-0.846 0,-24.891 0,-24.891l10.147,0l0,65.913l-10.494,0l0,-6.158l-0.434,0c-1.33,1.966 -3.093,3.629 -5.29,4.987c-2.197,1.359 -5.059,2.038 -8.586,2.038Zm3.295,-8.846c4.048,0 6.895,-1.156 8.543,-3.469c1.648,-2.313 2.501,-5.811 2.559,-10.494l0,-1.388c0,-5.03 -0.795,-8.889 -2.385,-11.578c-1.59,-2.688 -4.554,-4.032 -8.89,-4.032c-3.353,0 -5.912,1.373 -7.675,4.119c-1.764,2.746 -2.646,6.606 -2.646,11.578c0,4.973 0.897,8.76 2.689,11.361c1.792,2.602 4.394,3.903 7.805,3.903Z" style="fill:#0e0e0e;fill-rule:nonzero;"/><g><path d="M204.321,66.049l-12.454,0c-0.084,-0.004 -0.168,-0.004 -0.252,-0.014c-0.835,-0.092 -1.595,-0.676 -1.893,-1.473c-0.207,-0.553 -0.189,-1.184 0.047,-1.724c0.034,-0.077 0.076,-0.15 0.114,-0.225l6.227,-10.785c0.123,-0.188 0.146,-0.241 0.299,-0.406c0.342,-0.372 0.81,-0.625 1.308,-0.708c0.222,-0.037 0.279,-0.028 0.503,-0.028c0.084,0.009 0.167,0.018 0.251,0.028c0.218,0.049 0.277,0.052 0.485,0.137c0.312,0.127 0.595,0.323 0.823,0.571c0.153,0.165 0.176,0.218 0.299,0.406l6.227,10.785c0.038,0.075 0.08,0.148 0.114,0.225c0.37,0.844 0.174,1.906 -0.501,2.562c-0.362,0.353 -0.843,0.58 -1.345,0.635c-0.084,0.01 -0.168,0.01 -0.252,0.014Z" style="fill:#777;"/><path d="M204.321,19.043l-12.454,0c-0.084,0.004 -0.168,0.004 -0.252,0.014c-0.835,0.092 -1.595,0.676 -1.893,1.473c-0.207,0.553 -0.189,1.184 0.047,1.724c0.034,0.077 0.076,0.15 0.114,0.225l6.227,10.785c0.123,0.188 0.146,0.241 0.299,0.406c0.342,0.372 0.81,0.625 1.308,0.708c0.222,0.037 0.279,0.028 0.503,0.028c0.084,-0.009 0.167,-0.018 0.251,-0.028c0.218,-0.049 0.277,-0.052 0.485,-0.137c0.312,-0.127 0.595,-0.323 0.823,-0.571c0.153,-0.165 0.176,-0.218 0.299,-0.406l6.227,-10.785c0.038,-0.075 0.08,-0.148 0.114,-0.225c0.37,-0.844 0.174,-1.906 -0.501,-2.562c-0.362,-0.353 -0.843,-0.58 -1.345,-0.635c-0.084,-0.01 -0.168,-0.01 -0.252,-0.014Z" style="fill:#777;"/></g><path d="M233.302,18.176c6.071,0 10.725,2.312 13.963,6.938l0.434,0l0,-6.071l10.147,0l0,47.353c0,6.707 -1.879,11.795 -5.637,15.264c-3.758,3.469 -9.425,5.204 -16.999,5.204c-3.353,0 -6.447,-0.217 -9.28,-0.651c-2.833,-0.433 -5.521,-1.171 -8.065,-2.211l0,-9.02c2.659,1.156 5.507,2.053 8.542,2.689c3.036,0.636 6.201,0.954 9.497,0.954c3.527,0 6.244,-0.998 8.152,-2.992c1.908,-1.995 3.209,-4.901 3.209,-8.717c0,0 0,-6.144 0,-7.025l-0.347,0c-1.619,2.429 -3.599,4.207 -5.94,5.334c-2.342,1.128 -4.987,1.691 -7.936,1.691c-5.724,0 -10.205,-2.139 -13.443,-6.417c-3.238,-4.279 -4.857,-10.234 -4.857,-17.866c0,-7.632 1.634,-13.616 4.901,-17.953c3.266,-4.336 7.82,-6.504 13.659,-6.504Zm2.862,8.933c-6.822,0 -10.234,5.232 -10.234,15.697c0,10.292 3.469,15.438 10.408,15.438c3.816,0 6.634,-1.056 8.456,-3.166c1.821,-2.11 2.731,-5.681 2.731,-10.711l0,-1.648c0,-5.55 -0.91,-9.54 -2.731,-11.968c-1.822,-2.428 -4.698,-3.642 -8.63,-3.642Z" style="fill:#0e0e0e;fill-rule:nonzero;"/><path d="M325.667,18.176c5.319,0 9.323,1.358 12.012,4.076c2.688,2.717 4.033,7.111 4.033,13.182l0,30.615l-10.928,0l0,-28.533c0,-6.996 -2.66,-10.494 -7.979,-10.494c-3.816,0 -6.534,1.243 -8.152,3.729c-1.619,2.486 -2.429,6.1 -2.429,10.841l0,24.457l-10.927,0l0,-28.533c0,-6.996 -2.689,-10.494 -8.066,-10.494c-3.99,0 -6.736,1.387 -8.239,4.163c-1.504,2.775 -2.255,6.736 -2.255,11.881l0,22.983l-10.928,0l0,-47.006l9.974,0l0,6.157l0.607,0c1.445,-2.428 3.411,-4.206 5.897,-5.333c2.487,-1.128 5.088,-1.691 7.806,-1.691c3.527,0 6.49,0.578 8.889,1.734c2.4,1.156 4.236,3.007 5.508,5.551l0.867,0c1.445,-2.544 3.469,-4.395 6.071,-5.551c2.602,-1.156 5.348,-1.734 8.239,-1.734Z" style="fill:#0e0e0e;fill-rule:nonzero;"/></g></svg>