<?xml version="1.0" encoding="UTF-8" standalone="no"?><!DOCTYPE svg PUBLIC "-//W3C//DTD SVG 1.1//EN" "http://www.w3.org/Graphics/SVG/1.1/DTD/svg11.dtd"><svg width="100%" height="100%" viewBox="0 0 128 128" version="1.1" xmlns="http://www.w3.org/2000/svg" xmlns:xlink="http://www.w3.org/1999/xlink" xml:space="preserve" xmlns:serif="http://www.serif.com/" style="fill-rule:evenodd;clip-rule:evenodd;stroke-linejoin:round;stroke-miterlimit:1.41421;"><g><circle cx="63.897" cy="63.996" r="63.529" style="fill:#202020;"/><g id="readigm-curtail"><path d="M76.4,102.629l-24.994,0c-0.169,-0.009 -0.338,-0.009 -0.506,-0.028c-1.675,-0.185 -3.201,-1.358 -3.8,-2.957c-0.415,-1.109 -0.379,-2.376 0.096,-3.459c0.068,-0.154 0.152,-0.301 0.229,-0.452l12.497,-21.645c0.246,-0.377 0.293,-0.483 0.599,-0.815c0.686,-0.746 1.625,-1.254 2.625,-1.421c0.446,-0.075 0.561,-0.056 1.01,-0.056c0.168,0.019 0.336,0.037 0.504,0.056c0.438,0.098 0.555,0.105 0.973,0.275c0.627,0.254 1.194,0.648 1.652,1.146c0.306,0.332 0.353,0.438 0.599,0.815l12.497,21.645c0.077,0.151 0.161,0.298 0.229,0.452c0.742,1.692 0.35,3.825 -1.004,5.142c-0.727,0.707 -1.692,1.163 -2.7,1.274c-0.168,0.019 -0.337,0.019 -0.506,0.028Z" style="fill:#fff;"/><path d="M76.4,25.362l-24.994,0c-0.169,0.009 -0.338,0.009 -0.506,0.028c-1.675,0.185 -3.201,1.358 -3.8,2.957c-0.415,1.109 -0.379,2.377 0.096,3.459c0.068,0.154 0.152,0.301 0.229,0.452l12.497,21.646c0.246,0.376 0.293,0.482 0.599,0.814c0.686,0.746 1.625,1.254 2.625,1.421c0.446,0.075 0.561,0.056 1.01,0.056c0.168,-0.018 0.336,-0.037 0.504,-0.056c0.438,-0.098 0.555,-0.105 0.973,-0.275c0.627,-0.254 1.194,-0.648 1.652,-1.146c0.306,-0.332 0.353,-0.438 0.599,-0.814l12.497,-21.646c0.077,-0.151 0.161,-0.298 0.229,-0.452c0.742,-1.692 0.35,-3.825 -1.004,-5.142c-0.727,-0.707 -1.692,-1.163 -2.7,-1.274c-0.168,-0.019 -0.337,-0.019 -0.506,-0.028Z" style="fill:#fff;"/></g></g></svg>