<?xml version="1.0" encoding="UTF-8" standalone="no"?><!DOCTYPE svg PUBLIC "-//W3C//DTD SVG 1.1//EN" "http://www.w3.org/Graphics/SVG/1.1/DTD/svg11.dtd"><svg width="100%" height="100%" viewBox="0 0 266 68" version="1.1" xmlns="http://www.w3.org/2000/svg" xmlns:xlink="http://www.w3.org/1999/xlink" xml:space="preserve" xmlns:serif="http://www.serif.com/" style="fill-rule:evenodd;clip-rule:evenodd;stroke-linejoin:round;stroke-miterlimit:1.41421;"><g><path d="M0.47,52.941l8.989,0l0,-22.273c0,-5.379 3.068,-8.664 8.158,-8.664c1.48,0 2.888,0.217 3.646,0.505l0,-8.122c-0.686,-0.144 -1.66,-0.361 -2.815,-0.361c-4.513,0 -7.87,2.672 -9.17,7.328l-0.18,0l0,-6.678l-8.628,0l0,38.265Z" style="fill:#222;fill-rule:nonzero;"/><path d="M41.676,20.849c5.126,0 8.592,3.79 8.808,9.205l-17.868,0c0.361,-5.306 4.007,-9.205 9.06,-9.205Zm8.845,20.648c-0.975,3.177 -4.152,5.271 -8.339,5.271c-5.884,0 -9.639,-4.115 -9.639,-10.252l0,-0.542l26.75,0l0,-2.924c0.072,-11.551 -6.859,-19.24 -17.653,-19.168c-11.01,0 -18.049,7.978 -18.049,20.071c0,12.165 6.931,19.746 18.41,19.746c9.061,0 15.775,-5.018 16.931,-12.202l-8.411,0Z" style="fill:#222;fill-rule:nonzero;"/><path d="M79.778,46.768c-3.899,0 -6.498,-1.986 -6.498,-5.126c0,-3.032 2.491,-4.982 6.823,-5.271l8.844,-0.541l0,2.924c0,4.584 -4.079,8.014 -9.169,8.014Zm-2.707,6.786c4.873,0 9.746,-2.563 11.912,-6.714l0.181,0l0,6.101l8.663,0l0,-26.352c0,-7.689 -6.173,-12.707 -15.667,-12.707c-9.71,0 -15.883,5.162 -16.244,12.273l8.339,0c0.577,-3.176 3.249,-5.234 7.544,-5.234c4.441,0 7.148,2.31 7.148,6.317l0,2.744l-10.108,0.578c-9.277,0.577 -14.547,4.656 -14.547,11.443c-0.073,6.823 5.487,11.624 12.779,11.551Z" style="fill:#222;fill-rule:nonzero;"/><path d="M120.082,53.554c2.779,0 5.234,-0.649 7.364,-1.985c2.129,-1.3 3.682,-3.032 4.729,-5.162l0.144,0l0,6.534l8.808,0l0,-52.091l-8.988,0l0,20.252l-0.217,0c-1.011,-2.13 -2.563,-3.827 -4.621,-5.126c-2.057,-1.3 -4.476,-1.95 -7.219,-1.95c-9.639,0 -15.884,7.689 -15.884,19.746c0,12.166 6.245,19.782 15.884,19.782Zm2.707,-32.127c5.667,0 9.386,4.873 9.386,12.381c0,7.581 -3.719,12.382 -9.386,12.382c-5.776,0 -9.386,-4.765 -9.386,-12.382c0,-7.58 3.61,-12.381 9.386,-12.381Z" style="fill:#222;fill-rule:nonzero;"/><g><path d="M159.194,52.941l-10.138,0c-0.069,-0.004 -0.138,-0.004 -0.206,-0.012c-0.679,-0.075 -1.298,-0.55 -1.541,-1.199c-0.168,-0.45 -0.154,-0.964 0.039,-1.403c0.027,-0.063 0.062,-0.122 0.093,-0.183l5.069,-8.78c0.099,-0.153 0.119,-0.196 0.243,-0.331c0.278,-0.302 0.659,-0.508 1.065,-0.576c0.18,-0.03 0.227,-0.022 0.409,-0.022c0.068,0.007 0.136,0.015 0.204,0.022c0.178,0.04 0.226,0.043 0.395,0.112c0.254,0.103 0.485,0.263 0.67,0.464c0.124,0.135 0.144,0.178 0.243,0.331l5.069,8.78c0.031,0.061 0.066,0.12 0.093,0.183c0.301,0.686 0.142,1.551 -0.407,2.086c-0.295,0.286 -0.687,0.471 -1.095,0.516c-0.068,0.008 -0.137,0.008 -0.205,0.012Z" style="fill:#0fdda9;"/><path d="M159.194,14.676l-10.138,0c-0.069,0.004 -0.138,0.004 -0.206,0.011c-0.679,0.076 -1.298,0.551 -1.541,1.2c-0.168,0.45 -0.154,0.964 0.039,1.403c0.027,0.062 0.062,0.122 0.093,0.183l5.069,8.78c0.099,0.152 0.119,0.196 0.243,0.33c0.278,0.303 0.659,0.509 1.065,0.577c0.18,0.03 0.227,0.022 0.409,0.022c0.068,-0.007 0.136,-0.015 0.204,-0.022c0.178,-0.04 0.226,-0.043 0.395,-0.112c0.254,-0.103 0.485,-0.263 0.67,-0.465c0.124,-0.134 0.144,-0.178 0.243,-0.33l5.069,-8.78c0.031,-0.061 0.066,-0.121 0.093,-0.183c0.301,-0.687 0.142,-1.552 -0.407,-2.086c-0.295,-0.287 -0.687,-0.471 -1.095,-0.517c-0.068,-0.007 -0.137,-0.007 -0.205,-0.011Z" style="fill:#5f42ff;"/></g><path d="M183.794,45.829c-5.667,0 -9.277,-4.584 -9.277,-12.129c0,-7.508 3.61,-12.273 9.277,-12.273c5.74,0 9.458,4.837 9.458,12.273c0,7.436 -3.718,12.129 -9.458,12.129Zm-0.036,21.551c11.155,0 18.483,-5.92 18.483,-15.053l0,-37.651l-8.808,0l0,6.57l-0.145,0c-1.119,-2.202 -2.707,-3.971 -4.801,-5.27c-2.13,-1.3 -4.548,-1.95 -7.256,-1.95c-9.746,0 -15.919,7.509 -15.919,19.638c0,11.913 6.317,19.313 15.739,19.313c5.487,0 9.963,-2.744 11.985,-6.859l0.216,0l0,6.462c0,2.418 -0.794,4.404 -2.418,5.92c-1.625,1.48 -3.863,2.238 -6.787,2.238c-2.13,0 -3.971,-0.433 -5.487,-1.336c-1.552,-0.902 -2.563,-2.093 -3.032,-3.573l-8.917,0c0.867,6.678 7.726,11.551 17.147,11.551Z" style="fill:#222;fill-rule:nonzero;"/><path d="M210.308,52.941l8.989,0l0,-23.428c0,-4.621 3.032,-7.978 7.364,-7.978c4.187,0 6.787,2.599 6.787,6.895l0,24.511l8.736,0l0,-23.645c0,-4.548 2.96,-7.761 7.291,-7.761c4.368,0 6.859,2.635 6.859,7.364l0,24.042l8.989,0l0,-26.244c0,-7.653 -4.982,-12.743 -12.49,-12.743c-5.56,0 -10.036,2.996 -11.913,7.689l-0.217,0c-1.407,-4.909 -5.306,-7.689 -10.685,-7.689c-2.599,0 -4.873,0.686 -6.786,2.022c-1.914,1.335 -3.285,3.14 -4.116,5.342l-0.18,0l0,-6.642l-8.628,0l0,38.265Z" style="fill:#222;fill-rule:nonzero;"/></g></svg>