<svg width="256" height="256" viewBox="0 0 256 256" fill="none" xmlns="http://www.w3.org/2000/svg">
<path fill-rule="evenodd" clip-rule="evenodd" d="M13.8103 133.188C12.7299 129.814 12.7299 126.186 13.8103 122.812C27.7075 79.4148 75.43 51 127.797 51C180.163 51 227.886 79.4148 241.783 122.812C242.863 126.186 242.863 129.814 241.783 133.188C227.886 176.585 180.163 205 127.797 205C75.43 205 27.7075 176.585 13.8103 133.188ZM127.797 67.9853C80.6185 67.9853 41.0028 93.5111 29.9584 128C41.0028 162.489 80.6185 188.015 127.797 188.015C174.975 188.015 214.59 162.489 225.635 128C214.59 93.5111 174.975 67.9853 127.797 67.9853Z" fill="#5F42FF"/>
<path fill-rule="evenodd" clip-rule="evenodd" d="M179.316 128.239C179.316 156.537 156.412 179.478 128.158 179.478C99.9042 179.478 77 156.537 77 128.239C77 99.9405 99.9042 77 128.158 77C156.412 77 179.316 99.9405 179.316 128.239ZM128.158 162.493C147.046 162.493 162.357 147.157 162.357 128.239C162.357 109.321 147.046 93.9853 128.158 93.9853C109.27 93.9853 93.9584 109.321 93.9584 128.239C93.9584 147.157 109.27 162.493 128.158 162.493Z" fill="#5F42FF"/>
<path fill-rule="evenodd" clip-rule="evenodd" d="M285.81 133.188C284.73 129.814 284.73 126.186 285.81 122.812C299.708 79.4148 347.43 51 399.797 51C452.163 51 499.886 79.4148 513.783 122.812C514.863 126.186 514.863 129.814 513.783 133.188C499.886 176.585 452.163 205 399.797 205C347.43 205 299.708 176.585 285.81 133.188ZM399.797 67.9853C352.619 67.9853 313.003 93.5111 301.958 128C313.003 162.489 352.619 188.015 399.797 188.015C446.975 188.015 486.59 162.489 497.635 128C486.59 93.5111 446.975 67.9853 399.797 67.9853Z" fill="#BEBEBE"/>
<path fill-rule="evenodd" clip-rule="evenodd" d="M167.567 134.37C165.274 134.784 162.912 135 160.5 135C138.685 135 121 117.315 121 95.5C121 93.5055 121.148 91.5455 121.433 89.6304C102.99 92.9615 89 109.097 89 128.5C89 150.315 106.685 168 128.5 168C148.321 168 164.732 153.401 167.567 134.37Z" fill="#5F42FF"/>
</svg>
