<svg width="256" height="256" viewBox="0 0 256 256" fill="none" xmlns="http://www.w3.org/2000/svg">
<path fill-rule="evenodd" clip-rule="evenodd" d="M-258.19 133.188C-259.27 129.814 -259.27 126.186 -258.19 122.812C-244.292 79.4148 -196.57 51 -144.203 51C-91.8367 51 -44.1143 79.4148 -30.217 122.812C-29.1367 126.186 -29.1367 129.814 -30.217 133.188C-44.1143 176.585 -91.8367 205 -144.203 205C-196.57 205 -244.292 176.585 -258.19 133.188ZM-144.203 67.9853C-191.381 67.9853 -230.997 93.5111 -242.042 128C-230.997 162.489 -191.381 188.015 -144.203 188.015C-97.0253 188.015 -57.4096 162.489 -46.3652 128C-57.4096 93.5111 -97.0253 67.9853 -144.203 67.9853Z" fill="#5F42FF"/>
<path fill-rule="evenodd" clip-rule="evenodd" d="M13.8103 133.188C12.7299 129.814 12.7299 126.186 13.8103 122.812C27.7075 79.4148 75.43 51 127.797 51C180.163 51 227.886 79.4148 241.783 122.812C242.863 126.186 242.863 129.814 241.783 133.188C227.886 176.585 180.163 205 127.797 205C75.43 205 27.7075 176.585 13.8103 133.188ZM127.797 67.9853C80.6185 67.9853 41.0028 93.5111 29.9584 128C41.0028 162.489 80.6185 188.015 127.797 188.015C174.975 188.015 214.59 162.489 225.635 128C214.59 93.5111 174.975 67.9853 127.797 67.9853Z" fill="#7E7E7E"/>
<path fill-rule="evenodd" clip-rule="evenodd" d="M178.955 128.283C178.955 156.582 156.05 179.522 127.797 179.522C99.5429 179.522 76.6387 156.582 76.6387 128.283C76.6387 99.9846 99.5429 77.0441 127.797 77.0441C156.05 77.0441 178.955 99.9846 178.955 128.283ZM127.797 162.537C146.684 162.537 161.996 147.201 161.996 128.283C161.996 109.365 146.684 94.0294 127.797 94.0294C108.909 94.0294 93.5971 109.365 93.5971 128.283C93.5971 147.201 108.909 162.537 127.797 162.537Z" fill="#7E7E7E"/>
<path fill-rule="evenodd" clip-rule="evenodd" d="M167.567 134.37C165.274 134.784 162.912 135 160.5 135C138.685 135 121 117.315 121 95.5C121 93.5055 121.148 91.5455 121.433 89.6304C102.99 92.9615 89 109.097 89 128.5C89 150.315 106.685 168 128.5 168C148.321 168 164.732 153.401 167.567 134.37Z" fill="#7E7E7E"/>
</svg>
