<?xml version="1.0" standalone="no"?><!-- Generator: Gravit.io --><svg xmlns="http://www.w3.org/2000/svg" xmlns:xlink="http://www.w3.org/1999/xlink" style="isolation:isolate" viewBox="326 106 246 140" width="246" height="140"><defs><clipPath id="_clipPath_YDc87EGdv3yPtAopReLMOOBQDMLDA7zP"><rect width="5000" height="5000"/></clipPath></defs><g clip-path="url(#_clipPath_YDc87EGdv3yPtAopReLMOOBQDMLDA7zP)"><path d=" M 288 176 C 268.558 211.013 225.698 235.36 176 235.36 C 126.302 235.36 83.442 211.013 64 176 C 83.442 140.987 126.302 116.64 176 116.64 C 225.698 116.64 268.558 140.987 288 176 Z " fill="none" vector-effect="non-scaling-stroke" stroke-width="20" stroke="rgb(84,28,225)" stroke-linejoin="round" stroke-linecap="square" stroke-miterlimit="3"/><g><path d=" M 170.981 140.352 C 153.483 142.794 140 157.835 140 176 C 140 195.869 156.131 212 176 212 C 193.787 212 208.578 199.073 211.481 182.109 C 209.841 182.343 208.165 182.462 206.462 182.462 C 186.593 182.462 170.462 166.33 170.462 146.462 C 170.462 144.379 170.639 142.338 170.981 140.352 Z " fill-rule="evenodd" fill="rgb(84,28,225)"/><circle vector-effect="non-scaling-stroke" cx="176.00000000000003" cy="175.99999999999994" r="36.00000000000003" fill="none" stroke-width="15" stroke="rgb(84,28,225)" stroke-linejoin="miter" stroke-linecap="square" stroke-miterlimit="3"/></g><path d=" M 561 176 C 541.558 211.013 498.698 235.36 449 235.36 C 399.302 235.36 356.442 211.013 337 176 C 356.442 140.987 399.302 116.64 449 116.64 C 498.698 116.64 541.558 140.987 561 176 Z " fill="none" vector-effect="non-scaling-stroke" stroke-width="20" stroke="rgb(179,179,179)" stroke-linejoin="round" stroke-linecap="square" stroke-miterlimit="3"/><g><path d=" M 443.981 140.352 C 426.483 142.794 413 157.835 413 176 C 413 195.869 429.131 212 449 212 C 466.787 212 481.578 199.073 484.481 182.109 C 482.841 182.343 481.165 182.462 479.462 182.462 C 459.593 182.462 443.462 166.33 443.462 146.462 C 443.462 144.379 443.639 142.338 443.981 140.352 Z " fill-rule="evenodd" fill="rgb(179,179,179)"/><circle vector-effect="non-scaling-stroke" cx="449" cy="175.99999999999994" r="36" fill="none" stroke-width="15" stroke="rgb(179,179,179)" stroke-linejoin="miter" stroke-linecap="square" stroke-miterlimit="3"/></g></g></svg>