<?xml version="1.0" encoding="UTF-8" standalone="no"?><!DOCTYPE svg PUBLIC "-//W3C//DTD SVG 1.1//EN" "http://www.w3.org/Graphics/SVG/1.1/DTD/svg11.dtd"><svg width="100%" height="100%" viewBox="0 0 64 64" version="1.1" xmlns="http://www.w3.org/2000/svg" xmlns:xlink="http://www.w3.org/1999/xlink" xml:space="preserve" xmlns:serif="http://www.serif.com/" style="fill-rule:evenodd;clip-rule:evenodd;stroke-linejoin:round;stroke-miterlimit:1.41421;"><rect id="icons" x="-207" y="-5" width="490" height="512" style="fill:none;"/><clipPath id="_clip1"><rect id="icons1" serif:id="icons" x="-207" y="-5" width="490" height="512"/></clipPath><g clip-path="url(#_clip1)"><g><rect x="17.675" y="20.04" width="3.206" height="24.123" style="fill:#fff;fill-rule:nonzero;"/><path d="M36.258,20.04c7.331,0 11.588,3.75 11.588,11.487c0,8.041 -3.649,12.636 -11.588,12.636l-8.277,0l0,-24.123l8.277,0Zm0.27,21.42c0.71,0 1.858,-0.068 3.075,-0.507c1.216,-0.405 2.466,-1.182 3.412,-2.568c0.946,-1.385 1.621,-3.446 1.621,-6.419c0,-2.872 -0.506,-5.169 -1.79,-6.791c-1.284,-1.588 -3.277,-2.432 -6.25,-2.432l-5.406,0l0,18.717l5.338,0Z" style="fill:#fff;fill-rule:nonzero;"/></g></g></svg>