<?xml version="1.0" encoding="UTF-8" standalone="no"?><!DOCTYPE svg PUBLIC "-//W3C//DTD SVG 1.1//EN" "http://www.w3.org/Graphics/SVG/1.1/DTD/svg11.dtd"><svg width="100%" height="100%" viewBox="0 0 42 42" version="1.1" xmlns="http://www.w3.org/2000/svg" xmlns:xlink="http://www.w3.org/1999/xlink" xml:space="preserve" xmlns:serif="http://www.serif.com/" style="fill-rule:evenodd;clip-rule:evenodd;stroke-linecap:round;stroke-linejoin:round;stroke-miterlimit:1.5;"><g id="nametag-icon"><path d="M20.02,8.493c-0.854,-0.079 -1.699,0.227 -2.305,0.833c-2.625,2.625 -9.983,9.983 -13.587,13.587c-0.541,0.541 -0.845,1.275 -0.845,2.04c0,0.765 0.304,1.499 0.845,2.04c2.896,2.896 8.166,8.166 11.061,11.061c1.127,1.127 2.954,1.127 4.081,0c3.608,-3.609 10.982,-10.983 13.598,-13.599c0.601,-0.6 0.906,-1.434 0.836,-2.28c-0.195,-2.331 -0.599,-7.176 -0.844,-10.108c-0.116,-1.395 -1.217,-2.505 -2.611,-2.633c-2.958,-0.272 -7.869,-0.724 -10.229,-0.941Z" style="fill:none;stroke:#fff;stroke-width:2.5px;"/><path d="M27.962,14.248c0.316,0.316 0.316,0.829 0,1.145c-0.316,0.316 -0.829,0.316 -1.145,0c-0.316,-0.316 -0.316,-0.829 0,-1.145c0.316,-0.316 0.829,-0.316 1.145,0Z" style="fill:#fff;stroke:#fff;stroke-width:2.5px;stroke-linejoin:bevel;"/><path d="M29.006,4.815c5.514,-9.227 19.864,6.069 4.105,10.26" style="fill:none;stroke:#fff;stroke-width:2.5px;"/></g></svg>