<?xml version="1.0" encoding="UTF-8" standalone="no"?><!DOCTYPE svg PUBLIC "-//W3C//DTD SVG 1.1//EN" "http://www.w3.org/Graphics/SVG/1.1/DTD/svg11.dtd"><svg width="100%" height="100%" viewBox="0 0 800 800" version="1.1" xmlns="http://www.w3.org/2000/svg" xmlns:xlink="http://www.w3.org/1999/xlink" xml:space="preserve" xmlns:serif="http://www.serif.com/" style="fill-rule:evenodd;clip-rule:evenodd;stroke-linejoin:round;stroke-miterlimit:1.41421;"><rect id="v2.0-final" serif:id="v2.0 final" x="0" y="0" width="800" height="800" style="fill:none;"/><g id="v2.0-final-curve" serif:id="v2.0 final curve"><path d="M437.86,733.94l-314.226,0c-2.514,-0.165 -5.045,-0.166 -7.543,-0.495c-17.539,-2.309 -33.684,-13.119 -42.508,-28.402c-8.823,-15.283 -10.125,-34.641 -3.343,-51.014c0.964,-2.328 2.229,-4.52 3.343,-6.78l157.113,-272.128c3.723,-5.571 4.416,-7.201 9.185,-11.969c7.143,-7.143 16.151,-12.344 25.908,-14.958c6.514,-1.746 8.272,-1.531 14.958,-1.97c2.515,0.165 5.029,0.33 7.544,0.495c6.572,1.307 8.343,1.324 14.573,3.905c9.333,3.865 17.585,10.198 23.734,18.212c1.534,1.999 2.8,4.19 4.2,6.285l157.113,272.128c1.115,2.26 2.38,4.452 3.344,6.78c6.77,16.344 5.48,35.731 -3.344,51.014c-8.823,15.283 -24.937,26.089 -42.507,28.402c-2.498,0.329 -5.029,0.33 -7.544,0.495Z"/><path d="M359.134,66.191c0.856,-0.038 1.712,-0.075 2.566,-0.131l314.226,0c2.515,0.165 5.029,0.33 7.544,0.495c2.471,0.491 4.98,0.822 7.414,1.474c21.87,5.86 39.345,25.52 42.342,48.282c1.318,10.014 -0.04,20.327 -3.905,29.66c-0.965,2.328 -2.229,4.52 -3.344,6.78l-140.429,243.231l145.069,251.267c1.115,2.26 2.379,4.452 3.344,6.78c9.608,23.197 2.128,52.36 -18.212,67.968c-18.017,13.825 -44.288,15.627 -64.08,4.2c-4.374,-2.525 -8.398,-5.613 -11.969,-9.185c-4.769,-4.768 -5.462,-6.398 -9.185,-11.969l-161.753,-280.164l0,0l-157.113,-272.128c-0.392,-0.796 -0.803,-1.584 -1.214,-2.372c-0.718,-1.379 -1.432,-2.76 -2.038,-4.19c0,0 -0.002,-0.004 -0.002,-0.004l-0.089,-0.214c0,0 -0.084,-0.204 -0.084,-0.204l-0.074,-0.18c0,0 -0.091,-0.227 -0.091,-0.227l-0.063,-0.157c0,0 -0.098,-0.251 -0.098,-0.251l-0.053,-0.135c0,0 -0.105,-0.274 -0.105,-0.274l-0.043,-0.113c0,0 -0.112,-0.297 -0.112,-0.297l-0.034,-0.091c0,0 -0.117,-0.319 -0.117,-0.319l-0.025,-0.07c0,0 -0.122,-0.341 -0.122,-0.341l-0.018,-0.049c0,0 -0.127,-0.363 -0.127,-0.363l-0.009,-0.028c0,0 -0.132,-0.385 -0.132,-0.385l-0.002,-0.006c-3.744,-11.113 -3.952,-23.346 -0.776,-34.606l0.001,-0.004c0,0 0.108,-0.378 0.108,-0.378l0.006,-0.019c0,0 0.106,-0.362 0.106,-0.362l0.01,-0.035c0,0 0.105,-0.346 0.105,-0.346l0.014,-0.049c0,0 0.103,-0.33 0.103,-0.33l0.019,-0.065c0,0 0.1,-0.315 0.1,-0.315l0.025,-0.078c0,0 0.098,-0.3 0.098,-0.3l0.03,-0.093c0,0 0.094,-0.285 0.094,-0.285l0.036,-0.107c0,0 0.092,-0.27 0.092,-0.27l0.041,-0.121c0,0 0.089,-0.255 0.089,-0.255l0.047,-0.135c0,0 0.086,-0.241 0.086,-0.241l0.053,-0.147c0,0 0.083,-0.228 0.083,-0.228l0.059,-0.16c0,0 0.08,-0.215 0.08,-0.215l0.064,-0.172c0,0 0.077,-0.202 0.077,-0.202l0.07,-0.184c0,0 0.074,-0.19 0.074,-0.19l0.076,-0.195c0,0 0.071,-0.178 0.071,-0.178l0.082,-0.205c0,0 0.068,-0.167 0.068,-0.167l0.087,-0.216c0,0 0.065,-0.156 0.065,-0.156l0.093,-0.225c0,0 0.063,-0.147 0.063,-0.147l0.099,-0.233c0,0 0.059,-0.139 0.059,-0.139l0.104,-0.24c0,0 0.058,-0.131 0.058,-0.131l0.109,-0.247c0,0 0.056,-0.124 0.056,-0.124l0.114,-0.253c0,0 0.053,-0.117 0.053,-0.117l0.119,-0.258c0,0 0.052,-0.113 0.052,-0.113l0.123,-0.261c0,0 0.052,-0.11 0.052,-0.11l0.125,-0.263c0,0 0.053,-0.107 0.053,-0.107l0.128,-0.265c0,0 0.053,-0.106 0.053,-0.106l0.13,-0.264c0,0 0.054,-0.107 0.054,-0.107l0.132,-0.262c0,0 0.057,-0.11 0.057,-0.11l0.132,-0.257c0,0 0.06,-0.115 0.06,-0.115l0.132,-0.251c0,0 0.064,-0.122 0.064,-0.122l0.13,-0.243c0,0 0.071,-0.13 0.071,-0.13l0.126,-0.234c0,0 0.079,-0.141 0.079,-0.141l0.121,-0.22c0,0 0.088,-0.157 0.088,-0.157l0.115,-0.204c0,0 0.099,-0.174 0.099,-0.174l0.106,-0.185c0,0 0.113,-0.194 0.113,-0.194l0.095,-0.163c0,0 0.129,-0.217 0.129,-0.217l0.082,-0.139c0,0 0.146,-0.241 0.146,-0.241l0.068,-0.113c0,0 0.165,-0.269 0.165,-0.269l0.051,-0.083c0,0 0.186,-0.3 0.186,-0.3l0.032,-0.051c0,0 0.212,-0.334 0.212,-0.334l0.01,-0.015c8.381,-13.114 22.231,-22.592 37.536,-25.671c0,0 0.004,-0.001 0.004,-0.001l0.403,-0.079c0,0 0.027,-0.005 0.027,-0.005l0.38,-0.072c0,0 0.051,-0.01 0.051,-0.01l0.357,-0.065c0,0 0.075,-0.013 0.075,-0.013l0.334,-0.058c0,0 0.098,-0.016 0.098,-0.016l0.311,-0.052c0,0 0.122,-0.019 0.122,-0.019l0.288,-0.046c0,0 0.145,-0.022 0.145,-0.022l0.265,-0.04c0,0 0.169,-0.024 0.169,-0.024l0.242,-0.035c0,0 0.193,-0.026 0.193,-0.026l0.219,-0.029c0,0 0,0 0,0l0.234,-0.03l0.082,-0.01c1.548,-0.191 3.103,-0.29 4.661,-0.324Z"/><path d="M124.538,66.067c19.528,0.535 38.241,10.953 48.456,27.725c0.235,0.386 0.461,0.777 0.691,1.165l46.236,80.082c0.59,1.05 0.746,1.307 1.299,2.378c11.724,22.701 6.268,53.163 -13.628,70.304c-19.361,16.681 -50.143,18.526 -71.546,3.077c-5.865,-4.233 -10.926,-9.585 -14.818,-15.651c-0.65,-1.014 -0.795,-1.278 -1.409,-2.314l-46.236,-80.082c-0.589,-1.05 -0.746,-1.307 -1.299,-2.378c-8.068,-15.622 -8.48,-35.019 -0.997,-51.012c8.802,-18.812 28.373,-32.075 49.187,-33.214c2.644,-0.145 3.235,-0.083 4.064,-0.08Z"/></g></svg>
