<?xml version="1.0" encoding="UTF-8" standalone="no"?><!DOCTYPE svg PUBLIC "-//W3C//DTD SVG 1.1//EN" "http://www.w3.org/Graphics/SVG/1.1/DTD/svg11.dtd"><svg width="100%" height="100%" viewBox="0 0 800 800" version="1.1" xmlns="http://www.w3.org/2000/svg" xmlns:xlink="http://www.w3.org/1999/xlink" xml:space="preserve" xmlns:serif="http://www.serif.com/" style="fill-rule:evenodd;clip-rule:evenodd;stroke-linejoin:round;stroke-miterlimit:1.41421;"><rect id="Artboard2" x="0" y="0" width="800" height="800" style="fill:none;"/><clipPath id="_clip1"><rect id="Artboard21" serif:id="Artboard2" x="0" y="0" width="800" height="800"/></clipPath><g clip-path="url(#_clip1)"><g id="v1.2"><path d="M309.115,400l237.781,328.666l-475.562,0l237.781,-328.666Z"/><path d="M315.224,361.509c3.981,0.957 7.988,1.929 11.619,3.783c3.65,1.865 6.983,4.293 9.876,7.196c1.442,1.447 2.648,3.112 3.972,4.668l237.781,328.666c1.06,1.739 2.261,3.399 3.182,5.216c7.379,14.549 4.391,33.612 -7.22,45.206c-5.783,5.775 -13.376,9.639 -21.447,10.917c-2.012,0.318 -4.061,0.319 -6.091,0.479l-475.562,0c-2.031,-0.16 -4.08,-0.161 -6.092,-0.479c-16.113,-2.55 -29.806,-16.144 -32.394,-32.348c-1.289,-8.07 0.031,-16.487 3.727,-23.775c0.921,-1.817 2.122,-3.477 3.183,-5.216l237.781,-328.666c3.515,-4.132 4.2,-5.431 8.625,-8.655c4.944,-3.602 10.763,-6.028 16.841,-6.992c4.027,-0.64 8.138,-0.322 12.219,0Zm-167.591,328.184l322.963,0l-161.481,-223.204c-53.828,74.402 -107.655,148.803 -161.482,223.204Z" style="fill-rule:nonzero;"/><path d="M728.666,728.666l-475.562,-657.332l475.562,0l-237.781,328.666"/><path d="M734.776,32.725c1.986,0.476 4.016,0.798 5.959,1.429c17.447,5.663 29.478,24.547 26.549,43.234c-0.635,4.048 -1.902,7.972 -3.756,11.627c-0.924,1.822 -2.128,3.487 -3.192,5.231l-221.204,305.754l221.204,305.754l3.195,5.236c1.56,3.789 3.125,7.607 3.756,11.639c2.827,18.09 -8.71,37.459 -26.616,43.238c-13.632,4.399 -29.544,0.582 -39.701,-9.616c-1.443,-1.449 -2.649,-3.115 -3.974,-4.672l-475.562,-657.333c-1.064,-1.744 -2.268,-3.409 -3.191,-5.231c-7.402,-14.593 -4.405,-33.712 7.241,-45.342c5.8,-5.791 13.416,-9.667 21.511,-10.948c2.018,-0.32 4.073,-0.321 6.109,-0.481l475.562,0c2.037,0.16 4.073,0.321 6.11,0.481Zm-405.145,77.698l161.254,222.889l161.255,-222.889c-107.503,0 -215.006,0 -322.509,0Z" style="fill-rule:nonzero;"/><path d="M72.659,32.225c10.717,0.608 21.106,5.296 28.162,13.384c1.041,1.193 1.26,1.527 2.217,2.788l147.414,203.76c5.791,8.399 8.479,18.766 7.001,28.696c-2.186,14.695 -13.456,27.622 -27.709,31.795c-15.336,4.49 -32.729,-1.476 -42.7,-14.617l-147.414,-203.76c-7.843,-11.378 -9.561,-26.53 -4.012,-38.925c6.306,-14.088 21.415,-23.295 37.041,-23.121Z" style="fill-rule:nonzero;"/></g></g></svg>