<?xml version="1.0" encoding="UTF-8" standalone="no"?><!DOCTYPE svg PUBLIC "-//W3C//DTD SVG 1.1//EN" "http://www.w3.org/Graphics/SVG/1.1/DTD/svg11.dtd"><svg width="100%" height="100%" viewBox="0 0 22 23" version="1.1" xmlns="http://www.w3.org/2000/svg" xmlns:xlink="http://www.w3.org/1999/xlink" xml:space="preserve" xmlns:serif="http://www.serif.com/" style="fill-rule:evenodd;clip-rule:evenodd;stroke-linejoin:round;stroke-miterlimit:1.41421;"><g id="magnifier"><path d="M2.949,3.406c3.539,-3.538 9.285,-3.538 12.823,0c3.539,3.539 3.539,9.285 0,12.823c-3.538,3.539 -9.284,3.539 -12.823,0c-3.538,-3.538 -3.538,-9.284 0,-12.823Zm1.365,1.365c2.785,-2.786 7.308,-2.786 10.094,0c2.785,2.785 2.785,7.308 0,10.094c-2.786,2.785 -7.309,2.785 -10.094,0c-2.786,-2.786 -2.786,-7.309 0,-10.094Z" style="fill:#6c6c79;"/><path d="M15.607,14.465c-0.221,-0.22 -0.579,-0.22 -0.799,0l-0.8,0.8c-0.22,0.22 -0.22,0.578 0,0.799l5.933,5.932c0.22,0.221 0.578,0.221 0.799,0l0.799,-0.799c0.221,-0.221 0.221,-0.579 0,-0.799l-5.932,-5.933Z" style="fill:#6c6c79;"/></g></svg>