<?xml version="1.0" encoding="UTF-8" standalone="no"?><!DOCTYPE svg PUBLIC "-//W3C//DTD SVG 1.1//EN" "http://www.w3.org/Graphics/SVG/1.1/DTD/svg11.dtd"><svg width="100%" height="100%" viewBox="0 0 46 47" version="1.1" xmlns="http://www.w3.org/2000/svg" xmlns:xlink="http://www.w3.org/1999/xlink" xml:space="preserve" xmlns:serif="http://www.serif.com/" style="fill-rule:evenodd;clip-rule:evenodd;stroke-linejoin:round;stroke-miterlimit:1.41421;"><g><g><path d="M13.623,0.146c0.258,0 0.467,0.209 0.467,0.467l0,3.265l0.436,0c0.274,0 0.497,0.223 0.497,0.497l0,2.738c0,0.274 -0.223,0.496 -0.497,0.496l-2.738,0c-0.274,0 -0.497,-0.222 -0.497,-0.496l0,-2.738c0,-0.274 0.223,-0.497 0.497,-0.497l0.436,0l0,-3.265c0,-0.258 0.209,-0.467 0.466,-0.467l0.933,0Z" style="fill:url(#_Linear1);"/><path d="M20.153,0.146c0.258,0 0.467,0.209 0.467,0.467l0,3.265l0.436,0c0.274,0 0.497,0.223 0.497,0.497l0,2.738c0,0.274 -0.223,0.496 -0.497,0.496l-2.738,0c-0.274,0 -0.497,-0.222 -0.497,-0.496l0,-2.738c0,-0.274 0.223,-0.497 0.497,-0.497l0.436,0l0,-3.265c0,-0.258 0.209,-0.467 0.467,-0.467l0.932,0Z" style="fill:url(#_Linear2);"/><path d="M26.684,0.146c0.257,0 0.466,0.209 0.466,0.467l0,3.265l0.436,0c0.274,0 0.497,0.223 0.497,0.497l0,2.738c0,0.274 -0.223,0.496 -0.497,0.496l-2.738,0c-0.274,0 -0.497,-0.222 -0.497,-0.496l0,-2.738c0,-0.274 0.223,-0.497 0.497,-0.497l0.436,0l0,-3.265c0,-0.258 0.209,-0.467 0.467,-0.467l0.933,0Z" style="fill:url(#_Linear3);"/><path d="M33.214,0.146c0.257,0 0.466,0.209 0.466,0.467l0,3.265l0.436,0c0.274,0 0.497,0.223 0.497,0.497l0,2.738c0,0.274 -0.223,0.496 -0.497,0.496l-2.738,0c-0.274,0 -0.496,-0.222 -0.496,-0.496l0,-2.738c0,-0.274 0.222,-0.497 0.496,-0.497l0.436,0l0,-3.265c0,-0.258 0.209,-0.467 0.467,-0.467l0.933,0Z" style="fill:url(#_Linear4);"/></g><g><path d="M13.623,46.051c0.258,0 0.467,-0.209 0.467,-0.467l0,-3.265l0.436,0c0.274,0 0.497,-0.223 0.497,-0.497l0,-2.738c0,-0.274 -0.223,-0.496 -0.497,-0.496l-2.738,0c-0.274,0 -0.497,0.222 -0.497,0.496l0,2.738c0,0.274 0.223,0.497 0.497,0.497l0.436,0l0,3.265c0,0.258 0.209,0.467 0.466,0.467l0.933,0Z" style="fill:url(#_Linear5);"/><path d="M20.153,46.051c0.258,0 0.467,-0.209 0.467,-0.467l0,-3.265l0.436,0c0.274,0 0.497,-0.223 0.497,-0.497l0,-2.738c0,-0.274 -0.223,-0.496 -0.497,-0.496l-2.738,0c-0.274,0 -0.497,0.222 -0.497,0.496l0,2.738c0,0.274 0.223,0.497 0.497,0.497l0.436,0l0,3.265c0,0.258 0.209,0.467 0.467,0.467l0.932,0Z" style="fill:url(#_Linear6);"/><path d="M26.684,46.051c0.257,0 0.466,-0.209 0.466,-0.467l0,-3.265l0.436,0c0.274,0 0.497,-0.223 0.497,-0.497l0,-2.738c0,-0.274 -0.223,-0.496 -0.497,-0.496l-2.738,0c-0.274,0 -0.497,0.222 -0.497,0.496l0,2.738c0,0.274 0.223,0.497 0.497,0.497l0.436,0l0,3.265c0,0.258 0.209,0.467 0.467,0.467l0.933,0Z" style="fill:url(#_Linear7);"/><path d="M33.214,46.051c0.257,0 0.466,-0.209 0.466,-0.467l0,-3.265l0.436,0c0.274,0 0.497,-0.223 0.497,-0.497l0,-2.738c0,-0.274 -0.223,-0.496 -0.497,-0.496l-2.738,0c-0.274,0 -0.496,0.222 -0.496,0.496l0,2.738c0,0.274 0.222,0.497 0.496,0.497l0.436,0l0,3.265c0,0.258 0.209,0.467 0.467,0.467l0.933,0Z" style="fill:url(#_Linear8);"/></g><g><path d="M0,32.427c0,-0.257 0.209,-0.466 0.466,-0.466l3.266,0l0,-0.436c0,-0.274 0.222,-0.497 0.496,-0.497l2.738,0c0.274,0 0.497,0.223 0.497,0.497l0,2.738c0,0.274 -0.223,0.496 -0.497,0.496l-2.738,0c-0.274,0 -0.496,-0.222 -0.496,-0.496l0,-0.436l-3.266,0c-0.257,0 -0.466,-0.209 -0.466,-0.467l0,-0.933Z" style="fill:url(#_Linear9);"/><path d="M0,25.897c0,-0.257 0.209,-0.466 0.466,-0.466l3.266,0l0,-0.436c0,-0.275 0.222,-0.497 0.496,-0.497l2.738,0c0.274,0 0.497,0.222 0.497,0.497l0,2.738c0,0.274 -0.223,0.496 -0.497,0.496l-2.738,0c-0.274,0 -0.496,-0.222 -0.496,-0.496l0,-0.437l-3.266,0c-0.257,0 -0.466,-0.209 -0.466,-0.466l0,-0.933Z" style="fill:url(#_Linear10);"/><path d="M0,19.367c0,-0.257 0.209,-0.466 0.466,-0.466l3.266,0l0,-0.437c0,-0.274 0.222,-0.496 0.496,-0.496l2.738,0c0.274,0 0.497,0.222 0.497,0.496l0,2.738c0,0.275 -0.223,0.497 -0.497,0.497l-2.738,0c-0.274,0 -0.496,-0.222 -0.496,-0.497l0,-0.436l-3.266,0c-0.257,0 -0.466,-0.209 -0.466,-0.466l0,-0.933Z" style="fill:url(#_Linear11);"/><path d="M0,12.837c0,-0.258 0.209,-0.467 0.466,-0.467l3.266,0l0,-0.436c0,-0.274 0.222,-0.496 0.496,-0.496l2.738,0c0.274,0 0.497,0.222 0.497,0.496l0,2.738c0,0.274 -0.223,0.497 -0.497,0.497l-2.738,0c-0.274,0 -0.496,-0.223 -0.496,-0.497l0,-0.436l-3.266,0c-0.257,0 -0.466,-0.209 -0.466,-0.466l0,-0.933Z" style="fill:url(#_Linear12);"/></g><g><path d="M45.904,32.427c0,-0.257 -0.209,-0.466 -0.466,-0.466l-3.265,0l0,-0.436c0,-0.274 -0.223,-0.497 -0.497,-0.497l-2.738,0c-0.274,0 -0.497,0.223 -0.497,0.497l0,2.738c0,0.274 0.223,0.496 0.497,0.496l2.738,0c0.274,0 0.497,-0.222 0.497,-0.496l0,-0.436l3.265,0c0.257,0 0.466,-0.209 0.466,-0.467l0,-0.933Z" style="fill:url(#_Linear13);"/><path d="M45.904,25.897c0,-0.257 -0.209,-0.466 -0.466,-0.466l-3.265,0l0,-0.436c0,-0.275 -0.223,-0.497 -0.497,-0.497l-2.738,0c-0.274,0 -0.497,0.222 -0.497,0.497l0,2.738c0,0.274 0.223,0.496 0.497,0.496l2.738,0c0.274,0 0.497,-0.222 0.497,-0.496l0,-0.437l3.265,0c0.257,0 0.466,-0.209 0.466,-0.466l0,-0.933Z" style="fill:url(#_Linear14);"/><path d="M45.904,19.367c0,-0.257 -0.209,-0.466 -0.466,-0.466l-3.265,0l0,-0.437c0,-0.274 -0.223,-0.496 -0.497,-0.496l-2.738,0c-0.274,0 -0.497,0.222 -0.497,0.496l0,2.738c0,0.275 0.223,0.497 0.497,0.497l2.738,0c0.274,0 0.497,-0.222 0.497,-0.497l0,-0.436l3.265,0c0.257,0 0.466,-0.209 0.466,-0.466l0,-0.933Z" style="fill:url(#_Linear15);"/><path d="M45.904,12.837c0,-0.258 -0.209,-0.467 -0.466,-0.467l-3.265,0l0,-0.436c0,-0.274 -0.223,-0.496 -0.497,-0.496l-2.738,0c-0.274,0 -0.497,0.222 -0.497,0.496l0,2.738c0,0.274 0.223,0.497 0.497,0.497l2.738,0c0.274,0 0.497,-0.223 0.497,-0.497l0,-0.436l3.265,0c0.257,0 0.466,-0.209 0.466,-0.466l0,-0.933Z" style="fill:url(#_Linear16);"/></g><path d="M37.508,9.606c0,-0.587 -0.476,-1.064 -1.063,-1.064l-26.986,0c-0.587,0 -1.063,0.477 -1.063,1.064l0,26.985c0,0.587 0.476,1.064 1.063,1.064l26.986,0c0.587,0 1.063,-0.477 1.063,-1.064l0,-26.985Z" style="fill:url(#_Linear17);"/><path d="M34,12.747c0,-0.412 -0.335,-0.747 -0.747,-0.747l-2.241,0c-0.413,0 -0.747,0.335 -0.747,0.747l0,2.34c0,0.412 0.334,0.747 0.747,0.747l2.241,0c0.412,0 0.747,-0.335 0.747,-0.747l0,-2.34Z" style="fill:#62f0d1;"/></g><defs><linearGradient id="_Linear1" x1="0" y1="0" x2="1" y2="0" gradientUnits="userSpaceOnUse" gradientTransform="matrix(2.82251e-15,46.0951,-46.0951,2.82251e-15,22.8289,0.146405)"><stop offset="0" style="stop-color:#404040;stop-opacity:1"/><stop offset="1" style="stop-color:#595959;stop-opacity:1"/></linearGradient><linearGradient id="_Linear2" x1="0" y1="0" x2="1" y2="0" gradientUnits="userSpaceOnUse" gradientTransform="matrix(2.82251e-15,46.0951,-46.0951,2.82251e-15,22.8289,0.146405)"><stop offset="0" style="stop-color:#404040;stop-opacity:1"/><stop offset="1" style="stop-color:#595959;stop-opacity:1"/></linearGradient><linearGradient id="_Linear3" x1="0" y1="0" x2="1" y2="0" gradientUnits="userSpaceOnUse" gradientTransform="matrix(2.82251e-15,46.0951,-46.0951,2.82251e-15,22.8289,0.146405)"><stop offset="0" style="stop-color:#404040;stop-opacity:1"/><stop offset="1" style="stop-color:#595959;stop-opacity:1"/></linearGradient><linearGradient id="_Linear4" x1="0" y1="0" x2="1" y2="0" gradientUnits="userSpaceOnUse" gradientTransform="matrix(2.82251e-15,46.0951,-46.0951,2.82251e-15,22.8289,0.146405)"><stop offset="0" style="stop-color:#404040;stop-opacity:1"/><stop offset="1" style="stop-color:#595959;stop-opacity:1"/></linearGradient><linearGradient id="_Linear5" x1="0" y1="0" x2="1" y2="0" gradientUnits="userSpaceOnUse" gradientTransform="matrix(2.82251e-15,46.0951,-46.0951,2.82251e-15,22.8289,0.146405)"><stop offset="0" style="stop-color:#404040;stop-opacity:1"/><stop offset="1" style="stop-color:#595959;stop-opacity:1"/></linearGradient><linearGradient id="_Linear6" x1="0" y1="0" x2="1" y2="0" gradientUnits="userSpaceOnUse" gradientTransform="matrix(2.82251e-15,46.0951,-46.0951,2.82251e-15,22.8289,0.146405)"><stop offset="0" style="stop-color:#404040;stop-opacity:1"/><stop offset="1" style="stop-color:#595959;stop-opacity:1"/></linearGradient><linearGradient id="_Linear7" x1="0" y1="0" x2="1" y2="0" gradientUnits="userSpaceOnUse" gradientTransform="matrix(2.82251e-15,46.0951,-46.0951,2.82251e-15,22.8289,0.146405)"><stop offset="0" style="stop-color:#404040;stop-opacity:1"/><stop offset="1" style="stop-color:#595959;stop-opacity:1"/></linearGradient><linearGradient id="_Linear8" x1="0" y1="0" x2="1" y2="0" gradientUnits="userSpaceOnUse" gradientTransform="matrix(2.82251e-15,46.0951,-46.0951,2.82251e-15,22.8289,0.146405)"><stop offset="0" style="stop-color:#404040;stop-opacity:1"/><stop offset="1" style="stop-color:#595959;stop-opacity:1"/></linearGradient><linearGradient id="_Linear9" x1="0" y1="0" x2="1" y2="0" gradientUnits="userSpaceOnUse" gradientTransform="matrix(2.82251e-15,46.0951,-46.0951,2.82251e-15,22.8289,0.146405)"><stop offset="0" style="stop-color:#404040;stop-opacity:1"/><stop offset="1" style="stop-color:#595959;stop-opacity:1"/></linearGradient><linearGradient id="_Linear10" x1="0" y1="0" x2="1" y2="0" gradientUnits="userSpaceOnUse" gradientTransform="matrix(2.82251e-15,46.0951,-46.0951,2.82251e-15,22.8289,0.146405)"><stop offset="0" style="stop-color:#404040;stop-opacity:1"/><stop offset="1" style="stop-color:#595959;stop-opacity:1"/></linearGradient><linearGradient id="_Linear11" x1="0" y1="0" x2="1" y2="0" gradientUnits="userSpaceOnUse" gradientTransform="matrix(2.82251e-15,46.0951,-46.0951,2.82251e-15,22.8289,0.146405)"><stop offset="0" style="stop-color:#404040;stop-opacity:1"/><stop offset="1" style="stop-color:#595959;stop-opacity:1"/></linearGradient><linearGradient id="_Linear12" x1="0" y1="0" x2="1" y2="0" gradientUnits="userSpaceOnUse" gradientTransform="matrix(2.82251e-15,46.0951,-46.0951,2.82251e-15,22.8289,0.146405)"><stop offset="0" style="stop-color:#404040;stop-opacity:1"/><stop offset="1" style="stop-color:#595959;stop-opacity:1"/></linearGradient><linearGradient id="_Linear13" x1="0" y1="0" x2="1" y2="0" gradientUnits="userSpaceOnUse" gradientTransform="matrix(2.82251e-15,46.0951,-46.0951,2.82251e-15,22.8289,0.146405)"><stop offset="0" style="stop-color:#404040;stop-opacity:1"/><stop offset="1" style="stop-color:#595959;stop-opacity:1"/></linearGradient><linearGradient id="_Linear14" x1="0" y1="0" x2="1" y2="0" gradientUnits="userSpaceOnUse" gradientTransform="matrix(2.82251e-15,46.0951,-46.0951,2.82251e-15,22.8289,0.146405)"><stop offset="0" style="stop-color:#404040;stop-opacity:1"/><stop offset="1" style="stop-color:#595959;stop-opacity:1"/></linearGradient><linearGradient id="_Linear15" x1="0" y1="0" x2="1" y2="0" gradientUnits="userSpaceOnUse" gradientTransform="matrix(2.82251e-15,46.0951,-46.0951,2.82251e-15,22.8289,0.146405)"><stop offset="0" style="stop-color:#404040;stop-opacity:1"/><stop offset="1" style="stop-color:#595959;stop-opacity:1"/></linearGradient><linearGradient id="_Linear16" x1="0" y1="0" x2="1" y2="0" gradientUnits="userSpaceOnUse" gradientTransform="matrix(2.82251e-15,46.0951,-46.0951,2.82251e-15,22.8289,0.146405)"><stop offset="0" style="stop-color:#404040;stop-opacity:1"/><stop offset="1" style="stop-color:#595959;stop-opacity:1"/></linearGradient><linearGradient id="_Linear17" x1="0" y1="0" x2="1" y2="0" gradientUnits="userSpaceOnUse" gradientTransform="matrix(2.82251e-15,46.0951,-46.0951,2.82251e-15,22.8289,0.146405)"><stop offset="0" style="stop-color:#404040;stop-opacity:1"/><stop offset="1" style="stop-color:#595959;stop-opacity:1"/></linearGradient></defs></svg>