<?xml version="1.0" encoding="UTF-8" standalone="no"?><!DOCTYPE svg PUBLIC "-//W3C//DTD SVG 1.1//EN" "http://www.w3.org/Graphics/SVG/1.1/DTD/svg11.dtd"><svg width="100%" height="100%" viewBox="0 0 35 52" version="1.1" xmlns="http://www.w3.org/2000/svg" xmlns:xlink="http://www.w3.org/1999/xlink" xml:space="preserve" xmlns:serif="http://www.serif.com/" style="fill-rule:evenodd;clip-rule:evenodd;stroke-linejoin:round;stroke-miterlimit:1.41421;"><path d="M12.27,6.88c1.443,2.238 2.126,4.274 1.981,7.142c-0.127,2.507 -2.189,5.587 -2.034,8.379c0.129,2.32 1.057,6.047 5.995,7.043c-2.834,-7.328 -1.343,-14.667 2.164,-19.014c3.058,-3.79 2.642,-9.801 2.642,-9.801c2.001,1.409 3.068,4.697 2.983,6.723c-0.15,3.537 -1.711,4.368 -0.27,9.473c0.829,2.939 4.366,4.928 6.795,8.499c1.481,2.179 2.471,6.069 2.341,8.88c-0.348,7.529 -6.451,16.888 -16.211,16.888c-9.761,0 -17.522,-7.926 -17.685,-17.685c-0.128,-7.626 3.86,-12.733 7.798,-17.174c3.178,-3.584 3.501,-9.353 3.501,-9.353Z" style="fill:url(#_Linear1);"/><defs><linearGradient id="_Linear1" x1="0" y1="0" x2="1" y2="0" gradientUnits="userSpaceOnUse" gradientTransform="matrix(2.96786e-15,48.4688,-48.4688,2.96786e-15,28.8189,2.62297)"><stop offset="0" style="stop-color:#fff300;stop-opacity:1"/><stop offset="1" style="stop-color:#e02000;stop-opacity:1"/></linearGradient></defs></svg>