<?xml version="1.0" encoding="UTF-8" standalone="no"?><!DOCTYPE svg PUBLIC "-//W3C//DTD SVG 1.1//EN" "http://www.w3.org/Graphics/SVG/1.1/DTD/svg11.dtd"><svg width="100%" height="100%" viewBox="0 0 416 218" version="1.1" xmlns="http://www.w3.org/2000/svg" xmlns:xlink="http://www.w3.org/1999/xlink" xml:space="preserve" xmlns:serif="http://www.serif.com/" style="fill-rule:evenodd;clip-rule:evenodd;stroke-linecap:round;stroke-linejoin:round;stroke-miterlimit:1.5;"><g id="key"><path d="M207.251,82.442c11.685,-43.717 51.614,-75.956 99.014,-75.956c56.579,0 102.514,45.935 102.514,102.514c0,56.579 -45.935,102.514 -102.514,102.514c-47.4,0 -87.329,-32.239 -99.014,-75.956l-186.751,0c-7.329,0 -13.279,-5.95 -13.279,-13.279l0,-26.558c0,-7.329 5.95,-13.279 13.279,-13.279l186.751,0Zm134.656,-9.084c19.672,19.671 19.672,51.613 0,71.284c-19.671,19.672 -51.613,19.672 -71.285,0c-19.671,-19.671 -19.671,-51.613 0,-71.284c19.672,-19.672 51.614,-19.672 71.285,0Z" style="fill:#ffe794;stroke:#ff6535;stroke-width:12.78px;"/><path d="M69.101,199.297c5.717,0 10.358,-4.641 10.358,-10.357l0,-20.715c0,-5.717 -4.641,-10.358 -10.358,-10.358l-51.522,0c-5.717,0 -10.358,4.641 -10.358,10.358l0,20.715c0,5.716 4.641,10.357 10.358,10.357l51.522,0Z" style="fill:#ffe794;stroke:#ff6535;stroke-width:12.78px;"/></g></svg>