<?xml version="1.0" encoding="UTF-8" standalone="no"?><!DOCTYPE svg PUBLIC "-//W3C//DTD SVG 1.1//EN" "http://www.w3.org/Graphics/SVG/1.1/DTD/svg11.dtd"><svg width="100%" height="100%" viewBox="0 0 373 68" version="1.1" xmlns="http://www.w3.org/2000/svg" xmlns:xlink="http://www.w3.org/1999/xlink" xml:space="preserve" xmlns:serif="http://www.serif.com/" style="fill-rule:evenodd;clip-rule:evenodd;stroke-linejoin:round;stroke-miterlimit:1.41421;"><rect id="pv-landscape" x="0.562" y="0.849" width="372.014" height="67.132" style="fill:none;"/><g id="v3.0-final-curve" serif:id="v3.0 final curve"><path d="M37.985,67.078l-30.543,0c-0.206,-0.012 -0.413,-0.012 -0.618,-0.035c-2.048,-0.226 -3.912,-1.659 -4.643,-3.613c-0.508,-1.356 -0.464,-2.904 0.116,-4.227c0.083,-0.189 0.186,-0.368 0.28,-0.552l15.271,-26.451c0.301,-0.46 0.359,-0.59 0.732,-0.996c0.839,-0.912 1.987,-1.533 3.209,-1.737c0.544,-0.09 0.685,-0.068 1.234,-0.068c0.205,0.023 0.41,0.046 0.615,0.068c0.536,0.121 0.678,0.129 1.189,0.337c0.766,0.311 1.46,0.792 2.019,1.4c0.374,0.406 0.432,0.536 0.732,0.996l15.272,26.451c0.093,0.184 0.197,0.363 0.28,0.552c0.907,2.068 0.427,4.674 -1.228,6.284c-0.888,0.863 -2.067,1.42 -3.299,1.556c-0.205,0.023 -0.412,0.023 -0.618,0.035Z" style="fill:#13edbd;"/><path d="M29.813,2.211c0.05,-0.007 0.101,-0.013 0.151,-0.019c0.205,-0.022 0.412,-0.022 0.618,-0.034l30.544,0c0.205,0.012 0.411,0.023 0.617,0.034c0.204,0.034 0.41,0.057 0.611,0.102c2.208,0.495 4.019,2.424 4.336,4.71c0.142,1.024 -0.005,2.083 -0.42,3.029c-0.083,0.189 -0.186,0.368 -0.279,0.552l-13.65,23.642l14.101,24.424c0.244,0.481 0.326,0.595 0.49,1.112c0.49,1.547 0.267,3.304 -0.595,4.68c-1.178,1.88 -3.537,2.951 -5.769,2.543c-1.396,-0.255 -2.683,-1.058 -3.524,-2.208c-0.12,-0.163 -0.222,-0.339 -0.333,-0.509l-30.994,-53.684c-0.092,-0.181 -0.193,-0.357 -0.275,-0.543l-0.003,-0.006l-0.001,-0.003l-0.004,-0.008l-0.003,-0.006l-0.001,-0.004l-0.003,-0.007l-0.004,-0.009l-0.002,-0.004l-0.001,-0.003l-0.003,-0.008l-0.005,-0.011l-0.001,-0.002l-0.001,-0.002l-0.004,-0.009l-0.004,-0.012l-0.001,-0.001l-0.001,-0.001l-0.004,-0.011l-0.005,-0.012l0,0l0,0c-0.036,-0.088 -0.07,-0.177 -0.101,-0.267l0,0l-0.001,-0.001l-0.005,-0.016l-0.002,-0.006l-0.001,-0.002l-0.001,-0.003l-0.005,-0.014l-0.002,-0.005l0,-0.002l-0.002,-0.006l-0.004,-0.012l-0.002,-0.004l0,-0.003l-0.003,-0.009l-0.003,-0.009l-0.001,-0.003l-0.002,-0.003l-0.004,-0.014l-0.002,-0.005l0,-0.002l-0.002,-0.004l-0.006,-0.019l0,0l0,0c-0.612,-1.93 -0.122,-4.193 1.332,-5.674c0.016,-0.017 0.033,-0.033 0.05,-0.05l0.002,-0.003l0.005,-0.004l0.004,-0.004l0.002,-0.002c0.009,-0.009 0.018,-0.018 0.028,-0.028c0.336,-0.327 0.714,-0.61 1.121,-0.843l0.005,-0.002l0.003,-0.002l0.006,-0.003l0.006,-0.004l0.01,-0.006l0.008,-0.004l0.001,-0.001l0.001,0c0.601,-0.339 1.264,-0.568 1.948,-0.667c0.013,-0.002 0.026,-0.004 0.039,-0.006Z" style="fill:#5f42ff;"/><path d="M7.601,2.161c1.87,0.072 3.664,1.085 4.645,2.704c0.021,0.034 0.041,0.068 0.061,0.102l3.701,6.411c0.052,0.093 0.066,0.115 0.115,0.209c0.866,1.659 0.828,3.749 -0.095,5.374c-1.189,2.094 -3.811,3.274 -6.223,2.682c-1.389,-0.341 -2.635,-1.234 -3.403,-2.443c-0.057,-0.09 -0.07,-0.113 -0.124,-0.204l-3.701,-6.411c-0.052,-0.092 -0.066,-0.115 -0.115,-0.209c-0.938,-1.796 -0.809,-4.093 0.348,-5.779c0.991,-1.443 2.687,-2.373 4.433,-2.435c0.106,-0.004 0.132,-0.003 0.238,-0.004c0.04,0.001 0.08,0.002 0.12,0.003Z" style="fill:#13edbd;fill-rule:nonzero;"/></g><g><path d="M116.415,5.6l-24.755,0l0,58.527l12.869,0l0,-18.525l11.886,0c6.229,0 11.161,-1.858 14.795,-5.574c3.634,-3.716 5.451,-8.525 5.451,-14.427c0,-6.011 -1.83,-10.847 -5.492,-14.509c-3.661,-3.661 -8.579,-5.492 -14.754,-5.492Zm-3.525,30.002l-8.361,0l0,-20.001l8.361,0c3.607,0 6.394,0.847 8.361,2.541c1.967,1.694 2.951,4.18 2.951,7.459c0,3.279 -1.011,5.765 -3.033,7.459c-2.022,1.695 -4.782,2.542 -8.279,2.542Z" style="fill:#333;fill-rule:nonzero;"/><path d="M148.137,26.667c-3.989,4.098 -5.983,9.536 -5.983,16.312c0,6.776 1.994,12.159 5.983,16.148c3.935,4.044 9.236,6.066 15.903,6.066c6.721,0 12.049,-2.022 15.984,-6.066c3.989,-3.989 5.984,-9.372 5.984,-16.148c0,-6.776 -1.995,-12.214 -5.984,-16.312c-4.044,-4.044 -9.372,-6.066 -15.984,-6.066c-6.558,0 -11.859,2.022 -15.903,6.066Zm5.656,16.312c0,-3.935 0.738,-7.05 2.214,-9.345c1.748,-2.841 4.426,-4.262 8.033,-4.262c3.606,0 6.339,1.421 8.197,4.262c1.421,2.295 2.131,5.41 2.131,9.345c0,3.88 -0.71,6.967 -2.131,9.263c-1.804,2.841 -4.536,4.262 -8.197,4.262c-3.662,0 -6.339,-1.421 -8.033,-4.262c-1.476,-2.296 -2.214,-5.383 -2.214,-9.263Z" style="fill:#333;fill-rule:nonzero;"/><path d="M204.041,64.127l12.952,0l14.345,-42.378l-11.558,0l-8.935,28.935l-0.164,0l-8.935,-28.935l-12.213,0l14.508,42.378Z" style="fill:#333;fill-rule:nonzero;"/><path d="M242.404,16.666c-1.804,0 -3.32,-0.614 -4.55,-1.844c-1.229,-1.23 -1.844,-2.746 -1.844,-4.549c0,-1.749 0.615,-3.225 1.844,-4.427c1.23,-1.202 2.746,-1.803 4.55,-1.803c1.748,0 3.224,0.615 4.426,1.844c1.202,1.23 1.803,2.692 1.803,4.386c0,1.803 -0.601,3.319 -1.803,4.549c-1.202,1.23 -2.678,1.844 -4.426,1.844Zm5.738,5.083l-11.64,0l0,42.378l11.64,0l0,-42.378Z" style="fill:#333;fill-rule:nonzero;"/><path d="M286.012,64.127l11.066,0l0,-42.378l-11.64,0l0,22.214c0,4.262 -0.71,7.35 -2.131,9.262c-1.421,1.913 -3.716,2.869 -6.886,2.869c-2.732,0 -4.658,-0.833 -5.778,-2.5c-1.121,-1.667 -1.681,-4.303 -1.681,-7.91l0,-23.935l-11.64,0l0,26.066c0,5.738 1.039,9.946 3.115,12.624c2.405,3.169 6.531,4.754 12.378,4.754c5.847,0 10.164,-2.323 12.951,-6.968l0.246,0l0,5.902Z" style="fill:#333;fill-rule:nonzero;"/><path d="M317.243,21.749l-10.984,0l0,42.378l11.64,0l0,-24.591c0,-3.661 1.038,-6.339 3.115,-8.033c1.42,-1.148 3.005,-1.721 4.754,-1.721c3.279,0 5.383,1.147 6.312,3.442c0.491,1.257 0.737,3.634 0.737,7.132l0,23.771l11.64,0l0,-23.607c0,-3.17 0.492,-5.629 1.476,-7.378c1.311,-2.24 3.415,-3.36 6.311,-3.36c3.006,0 5.028,1.011 6.066,3.033c0.711,1.366 1.066,3.798 1.066,7.295l0,24.017l11.64,0l0,-28.361c0,-5.247 -1.449,-9.154 -4.345,-11.722c-2.623,-2.295 -6.339,-3.443 -11.148,-3.443c-5.301,0 -9.563,2.35 -12.787,7.049c-2.077,-4.699 -6.203,-7.049 -12.378,-7.049c-5.41,0 -9.727,2.295 -12.951,6.885l-0.164,0l0,-5.737Z" style="fill:#333;fill-rule:nonzero;"/></g></svg>