<?xml version="1.0" encoding="UTF-8" standalone="no"?><!DOCTYPE svg PUBLIC "-//W3C//DTD SVG 1.1//EN" "http://www.w3.org/Graphics/SVG/1.1/DTD/svg11.dtd"><svg width="100%" height="100%" viewBox="0 0 70 71" version="1.1" xmlns="http://www.w3.org/2000/svg" xmlns:xlink="http://www.w3.org/1999/xlink" xml:space="preserve" xmlns:serif="http://www.serif.com/" style="fill-rule:evenodd;clip-rule:evenodd;stroke-linejoin:round;stroke-miterlimit:1.41421;"><g id="Povium-logo-color"><g><path d="M29.751,0.839c0.063,-0.008 0.126,-0.016 0.19,-0.023c0.221,-0.023 0.445,-0.023 0.667,-0.035l32.784,0c0.222,0.012 0.445,0.024 0.667,0.035c0.22,0.035 0.443,0.059 0.66,0.105c2.6,0.552 4.738,2.857 5.025,5.58c0.116,1.109 -0.064,2.246 -0.518,3.265c-0.09,0.204 -0.202,0.397 -0.303,0.596l-8.196,14.195c0,0 -2.631,4.557 -4.506,7.805c-1.142,1.979 -1.142,4.416 0,6.395c3.916,6.783 12.702,22 12.702,22c0.104,0.206 0.22,0.406 0.313,0.617c0.652,1.48 0.713,3.206 0.17,4.725c-0.848,2.376 -3.206,4.141 -5.784,4.235c-1.844,0.066 -3.7,-0.712 -4.946,-2.075c-0.416,-0.455 -0.481,-0.601 -0.816,-1.115l-32.783,-56.782l0,0c-0.101,-0.199 -0.213,-0.392 -0.304,-0.596l-0.004,-0.009l-0.005,-0.012c-0.009,-0.021 -0.018,-0.041 -0.027,-0.062l-0.001,-0.003l-0.003,-0.007l-0.016,-0.037l-0.013,-0.033l-0.004,-0.01l-0.002,-0.005c-0.01,-0.023 -0.019,-0.046 -0.028,-0.069l-0.005,-0.013l-0.008,-0.021l-0.005,-0.013l-0.007,-0.018c-0.672,-1.768 -0.516,-3.837 0.432,-5.479c0.143,-0.249 0.304,-0.486 0.481,-0.712c0.152,-0.199 0.316,-0.39 0.493,-0.57c0.97,-0.988 2.268,-1.646 3.638,-1.845c0.021,-0.003 0.041,-0.006 0.062,-0.009Z" style="fill:#5f2fff;"/></g><path d="M4.054,15.544c0,0 -2.999,-5.193 -2.999,-5.193c-0.104,-0.206 -0.219,-0.406 -0.312,-0.617c-1.018,-2.308 -0.521,-5.212 1.287,-7.052c0.97,-0.988 2.268,-1.646 3.637,-1.845c0.457,-0.067 0.92,-0.058 1.381,-0.05c0.608,0.077 0.768,0.072 1.358,0.248c1.106,0.328 2.118,0.962 2.896,1.814c0.416,0.455 0.481,0.601 0.816,1.115l1.468,2.543c0,0 2.999,5.193 2.999,5.193c0.104,0.205 0.219,0.406 0.312,0.617c1.018,2.308 0.52,5.211 -1.287,7.052c-0.97,0.987 -2.268,1.646 -3.637,1.845c-0.457,0.066 -0.92,0.058 -1.381,0.05c-0.608,-0.078 -0.768,-0.073 -1.358,-0.248c-1.106,-0.329 -2.118,-0.963 -2.896,-1.815c-0.416,-0.455 -0.481,-0.6 -0.816,-1.114l-1.468,-2.543Z" style="fill:#14ffb5;fill-rule:nonzero;"/><path d="M5.941,70.303c-0.22,-0.035 -0.443,-0.059 -0.66,-0.105c-2.6,-0.553 -4.738,-2.857 -5.025,-5.58c-0.116,-1.109 0.064,-2.247 0.518,-3.265c0.09,-0.204 0.202,-0.397 0.303,-0.596l8.196,-14.196l8.196,-14.195l0.364,-0.561c0.14,-0.173 0.272,-0.354 0.421,-0.519c1.778,-1.976 4.843,-2.675 7.344,-1.561c1.019,0.453 1.914,1.178 2.569,2.08c0.131,0.18 0.243,0.374 0.364,0.561l8.196,14.195l8.196,14.196c0.101,0.199 0.213,0.392 0.304,0.596c0.816,1.832 0.701,4.051 -0.304,5.791c-1.003,1.737 -2.865,2.949 -4.864,3.159c-0.221,0.023 -0.445,0.023 -0.667,0.035l-32.784,0c-0.222,-0.012 -0.445,-0.024 -0.667,-0.035Z" style="fill:#14ffb5;"/></g></svg>