<?xml version="1.0" encoding="UTF-8" standalone="no"?><!DOCTYPE svg PUBLIC "-//W3C//DTD SVG 1.1//EN" "http://www.w3.org/Graphics/SVG/1.1/DTD/svg11.dtd"><svg width="100%" height="100%" viewBox="0 0 66 65" version="1.1" xmlns="http://www.w3.org/2000/svg" xmlns:xlink="http://www.w3.org/1999/xlink" xml:space="preserve" xmlns:serif="http://www.serif.com/" style="fill-rule:evenodd;clip-rule:evenodd;stroke-linejoin:round;stroke-miterlimit:1.41421;"><g><path d="M36.156,64.92l-30.543,0c-0.206,-0.012 -0.413,-0.012 -0.618,-0.035c-2.048,-0.226 -3.912,-1.659 -4.643,-3.613c-0.508,-1.356 -0.464,-2.904 0.116,-4.227c0.083,-0.189 0.186,-0.368 0.28,-0.552l15.271,-26.451c0.301,-0.46 0.359,-0.59 0.732,-0.996c0.839,-0.912 1.987,-1.533 3.209,-1.737c0.544,-0.09 0.685,-0.068 1.234,-0.068c0.205,0.023 0.41,0.046 0.615,0.068c0.536,0.121 0.678,0.129 1.189,0.337c0.766,0.311 1.46,0.792 2.019,1.4c0.374,0.406 0.432,0.536 0.732,0.996l15.272,26.451c0.093,0.184 0.197,0.363 0.28,0.552c0.907,2.068 0.427,4.674 -1.228,6.284c-0.888,0.863 -2.067,1.42 -3.299,1.556c-0.205,0.023 -0.412,0.023 -0.618,0.035Z" style="fill:#13edbd;"/><path d="M27.984,0.053c0.05,-0.007 0.101,-0.013 0.151,-0.019c0.205,-0.022 0.412,-0.022 0.618,-0.034l30.544,0c0.205,0.012 0.411,0.023 0.617,0.034c0.204,0.034 0.41,0.057 0.611,0.102c2.208,0.495 4.019,2.424 4.336,4.71c0.142,1.024 -0.005,2.083 -0.42,3.029c-0.083,0.189 -0.186,0.368 -0.279,0.552l-13.65,23.642l14.101,24.424c0.244,0.481 0.326,0.595 0.49,1.112c0.49,1.547 0.267,3.304 -0.595,4.68c-1.178,1.88 -3.537,2.951 -5.769,2.543c-1.396,-0.255 -2.683,-1.058 -3.524,-2.208c-0.12,-0.163 -0.222,-0.339 -0.333,-0.509l-30.994,-53.684c-0.092,-0.181 -0.193,-0.357 -0.275,-0.543l-0.003,-0.006l-0.001,-0.003l-0.004,-0.008l-0.003,-0.006l-0.001,-0.004l-0.003,-0.007l-0.004,-0.009l-0.002,-0.004l-0.001,-0.003l-0.003,-0.008l-0.005,-0.011l-0.001,-0.002l-0.001,-0.002l-0.004,-0.009l-0.004,-0.012l-0.001,-0.001l-0.001,-0.001l-0.004,-0.011l-0.005,-0.012c-0.036,-0.088 -0.07,-0.177 -0.101,-0.267l-0.001,-0.001l-0.005,-0.016l-0.002,-0.006l-0.001,-0.002l-0.001,-0.003l-0.005,-0.014l-0.002,-0.005l0,-0.002l-0.002,-0.006l-0.004,-0.012l-0.002,-0.004l0,-0.003l-0.003,-0.009l-0.003,-0.009l-0.001,-0.003l-0.002,-0.003l-0.004,-0.014l-0.002,-0.005l0,-0.002l-0.002,-0.004l-0.006,-0.019c-0.612,-1.93 -0.122,-4.193 1.332,-5.674c0.016,-0.017 0.033,-0.033 0.05,-0.05l0.002,-0.003l0.005,-0.004l0.004,-0.004l0.002,-0.002c0.009,-0.009 0.018,-0.018 0.028,-0.028c0.336,-0.327 0.714,-0.61 1.121,-0.843l0.005,-0.002l0.003,-0.002l0.006,-0.003l0.006,-0.004l0.01,-0.006l0.008,-0.004l0.001,-0.001l0.001,0c0.601,-0.339 1.264,-0.568 1.948,-0.667c0.013,-0.002 0.026,-0.004 0.039,-0.006Z" style="fill:#5f42ff;"/><path d="M5.772,0.003c1.87,0.072 3.664,1.085 4.645,2.704c0.021,0.034 0.041,0.068 0.061,0.102l3.701,6.411c0.052,0.093 0.066,0.115 0.115,0.209c0.866,1.659 0.828,3.749 -0.095,5.374c-1.189,2.094 -3.811,3.274 -6.223,2.682c-1.389,-0.341 -2.635,-1.234 -3.403,-2.443c-0.057,-0.09 -0.07,-0.113 -0.124,-0.204l-3.701,-6.411c-0.052,-0.092 -0.066,-0.115 -0.115,-0.209c-0.938,-1.796 -0.809,-4.093 0.348,-5.779c0.991,-1.443 2.687,-2.373 4.433,-2.435c0.106,-0.004 0.132,-0.003 0.238,-0.004c0.04,0.001 0.08,0.002 0.12,0.003Z" style="fill:#13edbd;fill-rule:nonzero;"/></g></svg>