<?xml version="1.0" encoding="UTF-8" standalone="no"?><!DOCTYPE svg PUBLIC "-//W3C//DTD SVG 1.1//EN" "http://www.w3.org/Graphics/SVG/1.1/DTD/svg11.dtd"><svg width="100%" height="100%" viewBox="0 0 53 50" version="1.1" xmlns="http://www.w3.org/2000/svg" xmlns:xlink="http://www.w3.org/1999/xlink" xml:space="preserve" xmlns:serif="http://www.serif.com/" style="fill-rule:evenodd;clip-rule:evenodd;stroke-linejoin:round;stroke-miterlimit:1.41421;"><path d="M25.549,2.927c0.134,-0.412 0.518,-0.691 0.951,-0.691c0.433,0 0.817,0.279 0.951,0.691c1.471,4.527 4.211,12.961 5.011,15.422c0.134,0.412 0.518,0.691 0.951,0.691c2.588,0 11.456,0 16.216,0c0.433,0 0.817,0.279 0.951,0.691c0.134,0.412 -0.013,0.863 -0.364,1.118c-3.85,2.798 -11.025,8.01 -13.118,9.531c-0.351,0.255 -0.497,0.706 -0.364,1.118c0.8,2.462 3.541,10.896 5.011,15.422c0.134,0.412 -0.012,0.864 -0.363,1.118c-0.35,0.255 -0.825,0.255 -1.175,0c-3.851,-2.797 -11.025,-8.01 -13.119,-9.531c-0.351,-0.255 -0.825,-0.255 -1.176,0c-2.094,1.521 -9.268,6.734 -13.119,9.531c-0.35,0.255 -0.825,0.255 -1.175,0c-0.351,-0.254 -0.497,-0.706 -0.363,-1.118c1.47,-4.526 4.211,-12.96 5.011,-15.422c0.133,-0.412 -0.013,-0.863 -0.364,-1.118c-2.093,-1.521 -9.268,-6.733 -13.118,-9.531c-0.351,-0.255 -0.498,-0.706 -0.364,-1.118c0.134,-0.412 0.518,-0.691 0.951,-0.691c4.76,0 13.628,0 16.216,0c0.433,0 0.817,-0.279 0.951,-0.691c0.8,-2.461 3.54,-10.895 5.011,-15.422Z" style="fill:#ffcf00;"/></svg>