<?xml version="1.0" encoding="UTF-8" standalone="no"?><!DOCTYPE svg PUBLIC "-//W3C//DTD SVG 1.1//EN" "http://www.w3.org/Graphics/SVG/1.1/DTD/svg11.dtd"><svg width="100%" height="100%" viewBox="0 0 319 307" version="1.1" xmlns="http://www.w3.org/2000/svg" xmlns:xlink="http://www.w3.org/1999/xlink" xml:space="preserve" xmlns:serif="http://www.serif.com/" style="fill-rule:evenodd;clip-rule:evenodd;stroke-linecap:round;stroke-linejoin:round;stroke-miterlimit:1.5;"><g><g><path d="M240.377,15.075c-0.001,-4.359 -3.542,-7.898 -7.902,-7.896l-217.42,0.068c-4.359,0.002 -7.898,3.542 -7.897,7.902l0.088,277.069c0.001,4.36 3.542,7.898 7.901,7.897l217.42,-0.069c4.36,-0.001 7.899,-3.542 7.897,-7.901l-0.087,-277.07Z" style="fill:#fff6d6;stroke:#ffb33a;stroke-width:12.41px;"/><path d="M212.587,60.742c-0.002,-3.386 -2.748,-6.13 -6.134,-6.13c-27.341,0.007 -138,0.035 -165.344,0.042c-1.627,0 -3.186,0.647 -4.336,1.797c-1.15,1.151 -1.795,2.711 -1.795,4.337c0.001,0.452 0.001,0.908 0.001,1.36c0.001,3.386 2.747,6.13 6.133,6.129c27.342,-0.007 138,-0.034 165.345,-0.041c1.626,-0.001 3.186,-0.647 4.336,-1.798c1.149,-1.15 1.795,-2.71 1.794,-4.336c0,-0.452 0,-0.908 0,-1.36Z" style="fill:#ffb33a;"/><path d="M212.6,104.091c-0.001,-3.386 -2.747,-6.13 -6.133,-6.13c-27.341,0.007 -138,0.035 -165.345,0.042c-1.626,0 -3.186,0.647 -4.335,1.797c-1.15,1.151 -1.795,2.711 -1.795,4.337c0,0.452 0.001,0.908 0.001,1.36c0.001,3.386 2.747,6.13 6.133,6.129c27.341,-0.007 138,-0.034 165.345,-0.041c1.626,-0.001 3.186,-0.647 4.335,-1.798c1.15,-1.15 1.796,-2.71 1.795,-4.336c0,-0.452 0,-0.908 -0.001,-1.36Z" style="fill:#ffb33a;"/><path d="M212.614,147.44c-0.001,-3.386 -2.747,-6.13 -6.133,-6.129c-27.341,0.006 -138,0.034 -165.345,0.041c-1.626,0 -3.186,0.647 -4.336,1.797c-1.149,1.151 -1.795,2.711 -1.794,4.337c0,0.452 0,0.908 0,1.36c0.002,3.386 2.748,6.13 6.134,6.129c27.341,-0.007 138,-0.034 165.344,-0.041c1.627,-0.001 3.186,-0.647 4.336,-1.797c1.15,-1.151 1.795,-2.711 1.795,-4.337c-0.001,-0.452 -0.001,-0.908 -0.001,-1.36Z" style="fill:#ffb33a;"/><path d="M212.628,190.789c-0.002,-3.386 -2.747,-6.13 -6.134,-6.129c-27.341,0.006 -137.999,0.034 -165.344,0.041c-1.627,0 -3.186,0.647 -4.336,1.797c-1.149,1.151 -1.795,2.711 -1.794,4.337c0,0.452 0,0.908 0,1.36c0.001,3.386 2.747,6.13 6.133,6.129c27.342,-0.006 138,-0.034 165.345,-0.041c1.626,-0.001 3.186,-0.647 4.336,-1.797c1.149,-1.151 1.795,-2.711 1.794,-4.337c0,-0.452 0,-0.908 0,-1.36Z" style="fill:#ffb33a;"/></g><g><path d="M313.821,34.111c0,-0.943 -0.921,-1.708 -2.057,-1.708c-6.611,0 -27.266,0 -33.876,0c-1.136,0 -2.057,0.765 -2.057,1.708c0,17.969 0,171.998 0,189.967c0,0.943 0.921,1.708 2.057,1.708c6.61,0 27.265,0 33.876,0c1.136,0 2.057,-0.765 2.057,-1.708c0,-17.969 0,-171.998 0,-189.967Z" style="fill:#b1e4ff;stroke:#1e6aff;stroke-width:8.5px;"/><path d="M296.651,273.781c-0.354,0.682 -1.057,1.109 -1.825,1.109c-0.768,0 -1.472,-0.427 -1.826,-1.109c-3.721,-7.165 -12.124,-23.349 -15.609,-30.061c-0.331,-0.637 -0.306,-1.402 0.067,-2.016c0.373,-0.614 1.04,-0.989 1.758,-0.989c7.21,0 24.009,0 31.219,0c0.719,0 1.385,0.375 1.758,0.989c0.373,0.614 0.399,1.379 0.068,2.016c-3.486,6.712 -11.889,22.896 -15.61,30.061Z" style="fill:#b1e4ff;stroke:#1e6aff;stroke-width:8.51px;"/></g></g></svg>