<?xml version="1.0" encoding="UTF-8" standalone="no"?><!DOCTYPE svg PUBLIC "-//W3C//DTD SVG 1.1//EN" "http://www.w3.org/Graphics/SVG/1.1/DTD/svg11.dtd"><svg width="100%" height="100%" viewBox="0 0 18 30" version="1.1" xmlns="http://www.w3.org/2000/svg" xmlns:xlink="http://www.w3.org/1999/xlink" xml:space="preserve" xmlns:serif="http://www.serif.com/" style="fill-rule:evenodd;clip-rule:evenodd;stroke-linejoin:round;stroke-miterlimit:1.41421;"><g id="right-arrow"><path d="M14.16,16.912c0.395,0.395 1.036,0.395 1.431,0l1.43,-1.43c0.395,-0.395 0.395,-1.036 0,-1.431l-13.462,-13.461c-0.394,-0.395 -1.035,-0.395 -1.43,0l-1.431,1.43c-0.394,0.395 -0.394,1.036 0,1.43l13.462,13.462Z" style="fill:#6c6c79;"/><path d="M0.698,26.083c-0.394,0.394 -0.394,1.035 0,1.43l1.431,1.431c0.395,0.394 1.036,0.394 1.43,0l13.462,-13.462c0.395,-0.395 0.395,-1.036 0,-1.431l-1.43,-1.43c-0.395,-0.395 -1.036,-0.395 -1.431,0l-13.462,13.462Z" style="fill:#6c6c79;"/></g></svg>