<?xml version="1.0" encoding="UTF-8" standalone="no"?><!DOCTYPE svg PUBLIC "-//W3C//DTD SVG 1.1//EN" "http://www.w3.org/Graphics/SVG/1.1/DTD/svg11.dtd"><svg width="100%" height="100%" viewBox="0 0 64 64" version="1.1" xmlns="http://www.w3.org/2000/svg" xmlns:xlink="http://www.w3.org/1999/xlink" xml:space="preserve" xmlns:serif="http://www.serif.com/" style="fill-rule:evenodd;clip-rule:evenodd;stroke-linejoin:round;stroke-miterlimit:1.41421;"><rect id="Artboard2" x="0" y="0" width="585.275" height="564.741" style="fill:none;"/><path id="bold" d="M23.661,47.505l0,-13.087l7.902,0c5.559,0 8.588,2.249 8.588,6.465c0,4.31 -2.935,6.622 -8.37,6.622l-8.12,0Zm0,-31.01l7.746,0c4.404,0 6.933,2.062 6.933,5.685c0,3.811 -2.873,6.028 -7.901,6.028l-6.778,0l0,-11.713Zm10.525,38.031c9.617,0 15.578,-4.962 15.578,-12.893c0,-5.966 -4.494,-10.429 -10.612,-10.897l0,-0.25c4.775,-0.718 8.458,-4.839 8.458,-9.774c0,-6.9 -5.306,-11.238 -13.767,-11.238l-19.607,0l0,45.052l19.95,0Z" style="fill:#fff;fill-rule:nonzero;"/></svg>