<svg width="256" height="256" viewBox="0 0 256 256" fill="none" xmlns="http://www.w3.org/2000/svg">
<path d="M51.3576 35.766C51.3576 34.1252 51.3576 33.3048 51.4776 32.62C52.0589 29.3005 54.6581 26.7013 57.9776 26.1199C58.6624 26 59.4828 26 61.1236 26H193.876C195.517 26 196.338 26 197.022 26.1199C200.342 26.7013 202.941 29.3005 203.522 32.62C203.642 33.3048 203.642 34.1252 203.642 35.766V35.766C203.642 37.4068 203.642 38.2271 203.522 38.912C202.941 42.2314 200.342 44.8306 197.022 45.412C196.338 45.5319 195.517 45.5319 193.876 45.5319H61.1236C59.4828 45.5319 58.6624 45.5319 57.9776 45.412C54.6581 44.8306 52.0589 42.2314 51.4776 38.912C51.3576 38.2271 51.3576 37.4068 51.3576 35.766V35.766Z" fill="white"/>
<path d="M51.3576 220.234C51.3576 218.593 51.3576 217.773 51.4776 217.088C52.0589 213.769 54.6581 211.169 57.9776 210.588C58.6624 210.468 59.4828 210.468 61.1236 210.468H193.876C195.517 210.468 196.338 210.468 197.022 210.588C200.342 211.169 202.941 213.769 203.522 217.088C203.642 217.773 203.642 218.593 203.642 220.234V220.234C203.642 221.875 203.642 222.695 203.522 223.38C202.941 226.7 200.342 229.299 197.022 229.88C196.338 230 195.517 230 193.876 230H61.1236C59.4828 230 58.6624 230 57.9776 229.88C54.6581 229.299 52.0589 226.7 51.4776 223.38C51.3576 222.695 51.3576 221.875 51.3576 220.234V220.234Z" fill="white"/>
<path d="M51 77.8C51 73.3196 51 71.0794 51.8719 69.3681C52.6389 67.8628 53.8628 66.6389 55.3681 65.8719C57.0794 65 59.3196 65 63.8 65H191.2C195.68 65 197.921 65 199.632 65.8719C201.137 66.6389 202.361 67.8628 203.128 69.3681C204 71.0794 204 73.3196 204 77.8V178.2C204 182.68 204 184.921 203.128 186.632C202.361 188.137 201.137 189.361 199.632 190.128C197.921 191 195.68 191 191.2 191H63.8C59.3196 191 57.0794 191 55.3681 190.128C53.8628 189.361 52.6389 188.137 51.8719 186.632C51 184.921 51 182.68 51 178.2V77.8Z" fill="white"/>
</svg>
