<svg width="256" height="256" viewBox="0 0 256 256" fill="none" xmlns="http://www.w3.org/2000/svg">
<path d="M52.3576 35.766C52.3576 34.1252 52.3576 33.3048 52.4776 32.62C53.0589 29.3005 55.6581 26.7013 58.9776 26.1199C59.6624 26 60.4828 26 62.1236 26H194.876C196.517 26 197.338 26 198.022 26.1199C201.342 26.7013 203.941 29.3005 204.522 32.62C204.642 33.3048 204.642 34.1252 204.642 35.766V35.766C204.642 37.4068 204.642 38.2271 204.522 38.912C203.941 42.2314 201.342 44.8306 198.022 45.412C197.338 45.5319 196.517 45.5319 194.876 45.5319H62.1236C60.4828 45.5319 59.6624 45.5319 58.9776 45.412C55.6581 44.8306 53.0589 42.2314 52.4776 38.912C52.3576 38.2271 52.3576 37.4068 52.3576 35.766V35.766Z" fill="white"/>
<path d="M52.3576 220.234C52.3576 218.593 52.3576 217.773 52.4776 217.088C53.0589 213.769 55.6581 211.169 58.9776 210.588C59.6624 210.468 60.4828 210.468 62.1236 210.468H194.876C196.517 210.468 197.338 210.468 198.022 210.588C201.342 211.169 203.941 213.769 204.522 217.088C204.642 217.773 204.642 218.593 204.642 220.234V220.234C204.642 221.875 204.642 222.695 204.522 223.38C203.941 226.7 201.342 229.299 198.022 229.88C197.338 230 196.517 230 194.876 230H62.1236C60.4828 230 59.6624 230 58.9776 229.88C55.6581 229.299 53.0589 226.7 52.4776 223.38C52.3576 222.695 52.3576 221.875 52.3576 220.234V220.234Z" fill="white"/>
<path d="M19 77.8638C19 73.3834 19 71.1432 19.8719 69.4319C20.6389 67.9266 21.8628 66.7028 23.3681 65.9358C25.0794 65.0638 27.3196 65.0638 31.8 65.0638H225.2C229.68 65.0638 231.921 65.0638 233.632 65.9358C235.137 66.7028 236.361 67.9266 237.128 69.4319C238 71.1432 238 73.3834 238 77.8638V178.136C238 182.617 238 184.857 237.128 186.568C236.361 188.073 235.137 189.297 233.632 190.064C231.921 190.936 229.68 190.936 225.2 190.936H31.8C27.3196 190.936 25.0794 190.936 23.3681 190.064C21.8628 189.297 20.6389 188.073 19.8719 186.568C19 184.857 19 182.617 19 178.136V77.8638Z" fill="white"/>
</svg>
