<?xml version="1.0" encoding="UTF-8" standalone="no"?><!DOCTYPE svg PUBLIC "-//W3C//DTD SVG 1.1//EN" "http://www.w3.org/Graphics/SVG/1.1/DTD/svg11.dtd"><svg width="100%" height="100%" viewBox="0 0 147 147" version="1.1" xmlns="http://www.w3.org/2000/svg" xmlns:xlink="http://www.w3.org/1999/xlink" xml:space="preserve" xmlns:serif="http://www.serif.com/" style="fill-rule:evenodd;clip-rule:evenodd;stroke-linecap:round;stroke-linejoin:round;stroke-miterlimit:1.5;"><path d="M838,-4.099c0,-19.097 -15.504,-34.6 -34.6,-34.6l-880.8,0c-19.096,0 -34.6,15.503 -34.6,34.6l0,154.198c0,19.097 15.504,34.6 34.6,34.6l880.8,0c19.096,0 34.6,-15.503 34.6,-34.6l0,-154.198Z"/><clipPath id="_clip1"><path d="M838,-4.099c0,-19.097 -15.504,-34.6 -34.6,-34.6l-880.8,0c-19.096,0 -34.6,15.503 -34.6,34.6l0,154.198c0,19.097 15.504,34.6 34.6,34.6l880.8,0c19.096,0 34.6,-15.503 34.6,-34.6l0,-154.198Z"/></clipPath><g clip-path="url(#_clip1)"><g id="image-float-left"></g><g id="image-fit"></g><g id="image-large"></g><g id="image-full"><path d="M141.129,46.156c0,-3.704 -3.007,-6.711 -6.711,-6.711l-123.14,0c-3.704,0 -6.711,3.007 -6.711,6.711l0,53.688c0,3.704 3.007,6.711 6.711,6.711l123.14,0c3.704,0 6.711,-3.007 6.711,-6.711l0,-53.688Z" style="fill:#fff;"/><path d="M49.184,22.667l47.328,0" style="fill:none;stroke:#fff;stroke-width:11.27px;"/><path d="M49.184,123.333l47.328,0" style="fill:none;stroke:#fff;stroke-width:11.27px;"/></g></g></svg>