<?xml version="1.0" encoding="UTF-8" standalone="no"?><!DOCTYPE svg PUBLIC "-//W3C//DTD SVG 1.1//EN" "http://www.w3.org/Graphics/SVG/1.1/DTD/svg11.dtd"><svg width="100%" height="100%" viewBox="0 0 64 64" version="1.1" xmlns="http://www.w3.org/2000/svg" xmlns:xlink="http://www.w3.org/1999/xlink" xml:space="preserve" xmlns:serif="http://www.serif.com/" style="fill-rule:evenodd;clip-rule:evenodd;stroke-linejoin:round;stroke-miterlimit:1.41421;"><rect id="Artboard2" x="-512" y="0" width="585.275" height="564.741" style="fill:none;"/><g id="link"><path d="M51.99,26.849c4.096,-4.095 4.096,-10.744 0,-14.839c-4.095,-4.096 -10.744,-4.096 -14.839,0l-4.582,4.581c-4.095,4.095 -4.095,10.744 0,14.84c4.096,4.095 10.745,4.095 14.84,0l4.581,-4.582Zm-4.358,-4.826c1.561,-1.561 1.561,-4.095 0,-5.655c-1.56,-1.561 -4.094,-1.561 -5.655,0l-5.049,5.049c-1.561,1.561 -1.561,4.095 0,5.655c1.56,1.561 4.094,1.561 5.655,0l5.049,-5.049Z" style="fill:#fff;"/><path d="M31.431,47.409c4.095,-4.095 4.095,-10.744 0,-14.84c-4.096,-4.095 -10.745,-4.095 -14.84,0l-4.581,4.582c-4.096,4.095 -4.096,10.744 0,14.839c4.095,4.096 10.744,4.096 14.839,0l4.582,-4.581Zm-4.359,-4.826c1.561,-1.561 1.561,-4.095 0,-5.655c-1.56,-1.561 -4.094,-1.561 -5.655,0l-5.049,5.049c-1.561,1.561 -1.561,4.095 0,5.655c1.56,1.561 4.094,1.561 5.655,0l5.049,-5.049Z" style="fill:#fff;"/></g></svg>