<?xml version="1.0" encoding="UTF-8" standalone="no"?><!DOCTYPE svg PUBLIC "-//W3C//DTD SVG 1.1//EN" "http://www.w3.org/Graphics/SVG/1.1/DTD/svg11.dtd"><svg width="100%" height="100%" viewBox="0 0 64 64" version="1.1" xmlns="http://www.w3.org/2000/svg" xmlns:xlink="http://www.w3.org/1999/xlink" xml:space="preserve" xmlns:serif="http://www.serif.com/" style="fill-rule:evenodd;clip-rule:evenodd;stroke-linejoin:round;stroke-miterlimit:1.41421;"><rect id="Artboard2" x="0" y="-128" width="585.275" height="564.741" style="fill:none;"/><path d="M39.286,45.213c5.656,-5.657 5.656,-14.842 0,-20.499c-5.657,-5.656 -14.842,-5.656 -20.499,0l-6.328,6.328c-5.657,5.657 -5.657,14.842 0,20.499c5.657,5.657 14.842,5.657 20.499,0l6.328,-6.328Zm-6.021,-6.667c2.156,-2.155 2.156,-5.656 0,-7.811c-2.155,-2.156 -5.656,-2.156 -7.811,0l-6.975,6.974c-2.156,2.156 -2.156,5.656 0,7.812c2.156,2.156 5.656,2.156 7.812,0l6.974,-6.975Z" style="fill:#222;"/><path d="M51.541,32.958c5.657,-5.657 5.657,-14.842 0,-20.499c-5.657,-5.657 -14.842,-5.657 -20.499,0l-6.328,6.328c-5.656,5.657 -5.656,14.842 0,20.499c5.657,5.656 14.842,5.656 20.499,0l6.328,-6.328Zm-6.02,-6.667c2.156,-2.156 2.156,-5.656 0,-7.812c-2.156,-2.156 -5.656,-2.156 -7.812,0l-6.974,6.975c-2.156,2.155 -2.156,5.656 0,7.811c2.155,2.156 5.656,2.156 7.811,0l6.975,-6.974Z" style="fill:#727272;"/><path d="M39.286,24.715c5.656,5.656 5.656,14.841 0,20.498l-6.328,6.328c-5.657,5.656 -14.842,5.657 -20.499,0l6.02,-6.02c2.156,2.156 5.656,2.155 7.812,0l6.974,-6.975c2.156,-2.155 2.156,-5.656 0,-7.811l6.021,-6.02Z" style="fill:#222;"/></svg>