<?xml version="1.0" encoding="UTF-8" standalone="no"?><!DOCTYPE svg PUBLIC "-//W3C//DTD SVG 1.1//EN" "http://www.w3.org/Graphics/SVG/1.1/DTD/svg11.dtd"><svg width="100%" height="100%" viewBox="0 0 64 64" version="1.1" xmlns="http://www.w3.org/2000/svg" xmlns:xlink="http://www.w3.org/1999/xlink" xml:space="preserve" xmlns:serif="http://www.serif.com/" style="fill-rule:evenodd;clip-rule:evenodd;stroke-linejoin:round;stroke-miterlimit:1.41421;"><rect id="Artboard2" x="-192" y="0" width="585.275" height="564.741" style="fill:none;"/><g id="strikethrough"><path d="M49.946,38.564c0.13,0.778 0.193,1.603 0.193,2.476c0,8.743 -7.085,14.267 -18.264,14.267c-10.835,0 -17.733,-5.15 -18.014,-13.611l9.083,0c0.437,3.716 4.309,6.152 9.306,6.152c5.028,0 8.463,-2.404 8.463,-5.715c0,-1.487 -0.553,-2.638 -1.806,-3.569l11.039,0Zm-23.235,-13.115l-11.541,0c-0.207,-0.926 -0.31,-1.912 -0.31,-2.958c0,-8.305 7.179,-13.798 17.234,-13.798c10.492,0 17.078,5.399 17.234,13.548l-8.833,0c-0.312,-3.809 -3.654,-6.12 -8.37,-6.12c-4.654,0 -7.777,2.217 -7.777,5.558c0,1.611 0.735,2.813 2.363,3.77Z" style="fill:#fff;fill-rule:nonzero;"/><rect x="9.157" y="28.42" width="45.686" height="7.16" style="fill:#fff;"/></g></svg>