<?xml version="1.0" encoding="UTF-8" standalone="no"?><!DOCTYPE svg PUBLIC "-//W3C//DTD SVG 1.1//EN" "http://www.w3.org/Graphics/SVG/1.1/DTD/svg11.dtd"><svg width="100%" height="100%" viewBox="0 0 512 512" version="1.1" xmlns="http://www.w3.org/2000/svg" xmlns:xlink="http://www.w3.org/1999/xlink" xml:space="preserve" xmlns:serif="http://www.serif.com/" style="fill-rule:evenodd;clip-rule:evenodd;stroke-linejoin:round;stroke-miterlimit:1.41421;"><rect x="0" y="0" width="512" height="512" style="fill:#5100ff;"/><g transform="matrix(1.22275,0,0,1.22275,-47.6849,-48.546)"><path d="M104.429,101.099l-25.162,0l0,65.898l25.162,0c19.778,0 31.42,-12.28 31.42,-33.2c0,-20.921 -11.642,-32.698 -31.42,-32.698Zm-11.375,54.486l0,-43.12l9.73,0c12.151,0 19.003,7.583 19.003,21.377c0,14.252 -6.669,21.743 -19.003,21.743l-9.73,0Z" style="fill:#fff;fill-rule:nonzero;"/><path d="M165.538,126.852c5.939,0 10.005,4.295 10.279,10.556l-20.786,0c0.456,-6.123 4.659,-10.556 10.507,-10.556Zm10.461,25.168c-1.233,3.747 -4.979,6.168 -9.867,6.168c-6.807,0 -11.238,-4.797 -11.238,-11.788l0,-0.823l33.751,0l0,-4.062c0,-14.891 -8.994,-24.522 -23.244,-24.522c-14.479,0 -23.609,10.133 -23.609,25.755c0,15.669 9.038,25.3 24.111,25.3c12.105,0 20.87,-6.436 22.331,-16.028l-12.235,0Z" style="fill:#fff;fill-rule:nonzero;"/><path d="M194.679,132.425c0,7.217 4.748,12.059 14.016,14.161l9.046,2.009c4.386,1.051 6.031,2.421 6.031,4.888c0,3.198 -3.061,5.208 -8.133,5.208c-5.299,0 -8.543,-2.376 -9.182,-6.487l-13.011,0c0.731,9.545 8.766,15.844 21.828,15.844c12.926,0 21.782,-6.345 21.782,-15.981c0,-7.309 -3.971,-11.191 -13.787,-13.384l-9.366,-2.01c-4.294,-1.005 -6.396,-2.649 -6.396,-5.07c0,-3.152 3.015,-5.253 7.63,-5.253c4.934,0 8.087,2.42 8.361,6.349l12.28,0c-0.182,-9.499 -8.171,-15.706 -20.458,-15.706c-12.561,0 -20.641,6.116 -20.641,15.432Z" style="fill:#fff;fill-rule:nonzero;"/><path d="M243.913,118.043l0,48.954l13.33,0l0,-48.954l-13.33,0Zm6.665,-5.395c4.018,0 7.122,-3.059 7.122,-6.893c0,-3.881 -3.104,-6.894 -7.122,-6.894c-4.017,0 -7.122,3.013 -7.122,6.894c0,3.834 3.105,6.893 7.122,6.893Z" style="fill:#fff;fill-rule:nonzero;"/><path d="M288.714,156.59c-6.624,0 -10.736,-5.208 -10.736,-14.161c0,-8.908 4.157,-14.481 10.736,-14.481c6.669,0 10.918,5.664 10.918,14.481c0,8.862 -4.249,14.161 -10.918,14.161Zm-0.229,28.858c14.662,0 24.432,-7.439 24.432,-19.136l0,-48.269l-13.148,0l0,8.541l-0.228,0c-2.559,-5.62 -8.086,-9.317 -15.122,-9.317c-12.421,0 -20.091,9.54 -20.091,25.07c0,15.303 7.898,24.523 19.863,24.523c7.081,0 12.837,-3.56 15.121,-8.764l0.274,0l0,8.582c0,5.666 -3.837,9.505 -10.735,9.505c-5.071,0 -8.909,-2.331 -9.959,-5.713l-13.057,0c1.05,8.725 9.769,14.978 22.65,14.978Z" style="fill:#fff;fill-rule:nonzero;"/><path d="M321.6,118.043l0,48.954l13.33,0l0,-28.084c0,-6.352 3.792,-10.737 9.777,-10.737c5.985,0 9,3.654 9,10.048l0,28.773l13.33,0l0,-31.559c0,-11.461 -6.117,-18.308 -16.985,-18.308c-7.538,0 -12.7,3.56 -15.304,9.631l-0.274,0l0,-8.718l-12.874,0Z" style="fill:#fff;fill-rule:nonzero;"/><path d="M105.663,228.387l0.319,0l8.449,26.997l-17.217,0l8.449,-26.997Zm16.76,53.298l14.659,0l-22.925,-65.898l-16.212,0l-22.879,65.898l14.156,0l5.024,-15.985l23.153,0l5.024,15.985Z" style="fill:#fff;fill-rule:nonzero;"/><path d="M142.659,232.731l0,48.954l13.331,0l0,-28.084c0,-6.352 3.792,-10.736 9.776,-10.736c5.985,0 9,3.653 9,10.047l0,28.773l13.331,0l0,-31.559c0,-11.461 -6.118,-18.308 -16.985,-18.308c-7.539,0 -12.701,3.56 -15.305,9.632l-0.274,0l0,-8.719l-12.874,0Z" style="fill:#fff;fill-rule:nonzero;"/><path d="M219.247,242.636c6.624,0 10.873,5.665 10.873,14.572c0,8.954 -4.249,14.527 -10.873,14.527c-6.715,0 -10.827,-5.528 -10.827,-14.527c0,-8.953 4.112,-14.572 10.827,-14.572Zm-4.522,39.826c7.218,0 12.882,-3.789 15.258,-9.175l0.228,0l0,8.398l13.148,0l0,-65.898l-13.33,0l0,25.343l-0.274,0c-2.376,-5.432 -7.858,-9.175 -14.939,-9.175c-12.285,0 -20.046,9.631 -20.046,25.159c0,15.671 7.716,25.348 19.955,25.348Z" style="fill:#fff;fill-rule:nonzero;"/><path d="M104.429,330.476l-25.162,0l0,65.898l25.162,0c19.778,0 31.42,-12.28 31.42,-33.201c0,-20.92 -11.642,-32.697 -31.42,-32.697Zm-11.375,54.486l0,-43.12l9.73,0c12.151,0 19.003,7.582 19.003,21.377c0,14.251 -6.669,21.743 -19.003,21.743l-9.73,0Z" style="fill:#fff;fill-rule:nonzero;"/><path d="M165.538,356.229c5.939,0 10.005,4.295 10.279,10.555l-20.786,0c0.456,-6.123 4.659,-10.555 10.507,-10.555Zm10.461,25.167c-1.233,3.747 -4.979,6.169 -9.867,6.169c-6.807,0 -11.238,-4.798 -11.238,-11.789l0,-0.822l33.751,0l0,-4.062c0,-14.892 -8.994,-24.523 -23.244,-24.523c-14.479,0 -23.609,10.134 -23.609,25.755c0,15.669 9.038,25.3 24.111,25.3c12.105,0 20.87,-6.436 22.331,-16.028l-12.235,0Z" style="fill:#fff;fill-rule:nonzero;"/><path d="M223.448,396.374l16.805,-48.954l-13.928,0l-10.138,37.176l-0.274,0l-10.183,-37.176l-14.294,0l16.942,48.954l15.07,0Z" style="fill:#fff;fill-rule:nonzero;"/><path d="M266.837,356.229c5.939,0 10.005,4.295 10.279,10.555l-20.786,0c0.457,-6.123 4.66,-10.555 10.507,-10.555Zm10.462,25.167c-1.234,3.747 -4.98,6.169 -9.868,6.169c-6.807,0 -11.238,-4.798 -11.238,-11.789l0,-0.822l33.751,0l0,-4.062c0,-14.892 -8.993,-24.523 -23.244,-24.523c-14.479,0 -23.609,10.134 -23.609,25.755c0,15.669 9.039,25.3 24.112,25.3c12.104,0 20.869,-6.436 22.33,-16.028l-12.234,0Z" style="fill:#fff;fill-rule:nonzero;"/><rect x="297.12" y="330.476" width="13.33" height="65.898" style="fill:#fff;fill-rule:nonzero;"/><path d="M341.921,397.424c14.799,0 24.249,-9.449 24.249,-25.573c0,-15.896 -9.587,-25.482 -24.249,-25.482c-14.662,0 -24.249,9.631 -24.249,25.482c0,16.079 9.45,25.573 24.249,25.573Zm0,-10.179c-6.579,0 -10.736,-5.527 -10.736,-15.348c0,-9.73 4.249,-15.349 10.736,-15.349c6.487,0 10.69,5.619 10.69,15.349c0,9.821 -4.157,15.348 -10.69,15.348Z" style="fill:#fff;fill-rule:nonzero;"/><path d="M397.138,386.423c-6.533,0 -10.827,-5.664 -10.827,-14.526c0,-8.771 4.294,-14.572 10.827,-14.572c6.669,0 10.872,5.71 10.872,14.572c0,8.907 -4.203,14.526 -10.872,14.526Zm4.477,-39.78c-7.081,0 -12.518,3.561 -15.167,9.312l-0.274,0l0,-8.535l-13.148,0l0,64.939l13.33,0l0,-24.201l0.274,0c2.604,5.523 8.086,8.992 15.213,8.992c12.239,0 19.817,-9.494 19.817,-25.25c0,-15.808 -7.624,-25.257 -20.045,-25.257Z" style="fill:#fff;fill-rule:nonzero;"/></g></svg>