<?xml version="1.0" encoding="UTF-8" standalone="no"?><!DOCTYPE svg PUBLIC "-//W3C//DTD SVG 1.1//EN" "http://www.w3.org/Graphics/SVG/1.1/DTD/svg11.dtd"><svg width="100%" height="100%" viewBox="0 0 34 33" version="1.1" xmlns="http://www.w3.org/2000/svg" xmlns:xlink="http://www.w3.org/1999/xlink" xml:space="preserve" xmlns:serif="http://www.serif.com/" style="fill-rule:evenodd;clip-rule:evenodd;stroke-linejoin:round;stroke-miterlimit:1.41421;"><g><g id="Povium-logo-color"><g><path d="M14.554,0.16c0.029,-0.004 0.059,-0.008 0.088,-0.011c0.104,-0.011 0.208,-0.011 0.311,-0.016l15.277,0c0.104,0.005 0.208,0.011 0.311,0.016c0.103,0.017 0.206,0.027 0.308,0.049c1.211,0.258 2.208,1.331 2.341,2.6c0.055,0.517 -0.03,1.047 -0.241,1.522c-0.042,0.095 -0.094,0.185 -0.141,0.277l-3.819,6.615c0,0 -1.226,2.124 -2.1,3.637c-0.533,0.922 -0.533,2.058 0,2.98c1.825,3.161 5.919,10.252 5.919,10.252c0.048,0.096 0.102,0.189 0.145,0.288c0.305,0.689 0.333,1.493 0.08,2.201c-0.395,1.107 -1.494,1.93 -2.695,1.974c-0.86,0.031 -1.725,-0.332 -2.305,-0.967c-0.194,-0.212 -0.224,-0.28 -0.38,-0.52l-15.277,-26.46l0,0c-0.047,-0.092 -0.099,-0.182 -0.141,-0.277l-0.002,-0.005l-0.003,-0.005c-0.004,-0.01 -0.008,-0.019 -0.012,-0.029l-0.001,-0.001l-0.001,-0.004l-0.008,-0.017l-0.006,-0.015l-0.002,-0.005l-0.001,-0.002c-0.004,-0.011 -0.009,-0.022 -0.013,-0.033l-0.002,-0.005l-0.004,-0.01l-0.002,-0.006l-0.003,-0.009c-0.313,-0.824 -0.241,-1.788 0.201,-2.553c0.067,-0.116 0.142,-0.226 0.224,-0.332c0.071,-0.092 0.147,-0.181 0.23,-0.265c0.452,-0.46 1.057,-0.767 1.695,-0.86c0.01,-0.001 0.019,-0.003 0.029,-0.004Z" style="fill:#999;"/></g><path d="M2.579,7.012c0,0 -1.397,-2.42 -1.397,-2.42c-0.048,-0.096 -0.102,-0.189 -0.146,-0.287c-0.474,-1.076 -0.242,-2.429 0.6,-3.286c0.452,-0.461 1.057,-0.767 1.695,-0.86c0.213,-0.031 0.429,-0.027 0.643,-0.023c0.284,0.036 0.358,0.033 0.634,0.115c0.515,0.153 0.986,0.449 1.349,0.846c0.194,0.212 0.224,0.279 0.38,0.519l0.684,1.185c0,0 1.398,2.42 1.398,2.42c0.048,0.096 0.102,0.189 0.145,0.287c0.475,1.076 0.243,2.429 -0.6,3.286c-0.452,0.461 -1.056,0.767 -1.695,0.86c-0.212,0.031 -0.428,0.027 -0.643,0.024c-0.283,-0.036 -0.358,-0.034 -0.633,-0.116c-0.515,-0.153 -0.987,-0.448 -1.349,-0.846c-0.194,-0.212 -0.224,-0.279 -0.38,-0.519l-0.685,-1.185Z" style="fill:#999;fill-rule:nonzero;"/><path d="M3.459,32.529c-0.103,-0.016 -0.206,-0.027 -0.308,-0.049c-1.211,-0.257 -2.208,-1.331 -2.341,-2.6c-0.055,-0.517 0.03,-1.047 0.241,-1.521c0.042,-0.095 0.094,-0.185 0.141,-0.278l3.819,-6.615l3.82,-6.615l0.169,-0.261c0.066,-0.081 0.127,-0.165 0.196,-0.242c0.829,-0.921 2.257,-1.247 3.423,-0.728c0.475,0.212 0.892,0.549 1.197,0.97c0.061,0.084 0.113,0.174 0.17,0.261l3.819,6.615l3.819,6.615c0.047,0.093 0.099,0.183 0.141,0.278c0.381,0.854 0.327,1.888 -0.141,2.698c-0.467,0.81 -1.335,1.374 -2.266,1.472c-0.104,0.011 -0.208,0.011 -0.311,0.016l-15.277,0c-0.104,-0.005 -0.208,-0.01 -0.311,-0.016Z" style="fill:#999;"/></g></g></svg>