<?xml version="1.0" encoding="UTF-8"?>
<svg width="216px" height="209px" viewBox="0 0 216 209" version="1.1" xmlns="http://www.w3.org/2000/svg" xmlns:xlink="http://www.w3.org/1999/xlink">
    <!-- Generator: Sketch 52.6 (67491) - http://www.bohemiancoding.com/sketch -->
    <title>Group 2</title>
    <desc>Created with Sketch.</desc>
    <g id="Page-1" stroke="none" stroke-width="1" fill="none" fill-rule="evenodd">
        <g id="Group-2" transform="translate(10.000000, 0.000000)" stroke="#222222" stroke-width="20">
            <path d="M70.458278,10 C59.7756757,10 55.9725995,10.7344079 52.063303,12.8251225 C48.9170989,14.5077309 46.5077309,16.9170989 44.8251225,20.063303 C42.7344079,23.9725995 42,27.7756757 42,38.458278 L42,170.541722 C42,181.224324 42.7344079,185.0274 44.8251225,188.936697 C46.5077309,192.082901 48.9170989,194.492269 52.063303,196.174877 C55.9725995,198.265592 59.7756757,199 70.458278,199 L167.541722,199 C178.224324,199 182.0274,198.265592 185.936697,196.174877 C189.082901,194.492269 191.492269,192.082901 193.174877,188.936697 C195.265592,185.0274 196,181.224324 196,170.541722 L196,38.458278 C196,27.7756757 195.265592,23.9725995 193.174877,20.063303 C191.492269,16.9170989 189.082901,14.5077309 185.936697,12.8251225 C182.0274,10.7344079 178.224324,10 167.541722,10 L70.458278,10 Z" id="Rectangle"></path>
            <g id="Group" transform="translate(0.000000, 70.000000)">
                <path d="M0,34.5 L120.5,34.5" id="Line" stroke-linecap="round"></path>
                <polygon id="Triangle" fill="#222222" stroke-linejoin="round" transform="translate(121.000000, 34.500000) rotate(-270.000000) translate(-121.000000, -34.500000) " points="121 10.5 155.5 58.5 86.5 58.5"></polygon>
            </g>
        </g>
    </g>
</svg>